<svg xmlns="http://www.w3.org/2000/svg" viewBox="0 0 122.36 31.92"><defs><style>.cls-1{font-size:21.31px;font-family:InkFree, Ink Free;}.cls-2{fill:#ed1c24;}.cls-3{fill:none;stroke:#231f20;stroke-miterlimit:10;}.cls-4{fill:#231f20;}</style></defs><g id="Layer_2" data-name="Layer 2"><g id="Layer_1-2" data-name="Layer 1"><text class="cls-1" transform="translate(40.44 20.8)">TAP</text><polygon class="cls-2" points="10.51 15.96 23.67 23.56 23.67 8.36 10.51 15.96"/><polygon class="cls-2" points="111.84 15.96 98.69 23.56 98.69 8.36 111.84 15.96"/><path class="cls-3" d="M4.46,11.54A15.47,15.47,0,1,1,7.56,26"/><path class="cls-4" d="M0,9.74A15.53,15.53,0,0,1,3.82,16a16.18,16.18,0,0,1,6.06-4.07l.27-1.22a17.62,17.62,0,0,0-6,3.65A18,18,0,0,0,.27,8.5Z"/><path class="cls-4" d="M.64,6.8A15.53,15.53,0,0,1,4.46,13,16.18,16.18,0,0,1,10.52,9l.27-1.22a17.62,17.62,0,0,0-6,3.65A18,18,0,0,0,.91,5.56Z"/><path class="cls-3" d="M117.89,11.54a15.47,15.47,0,1,0-3.1,14.5"/><path class="cls-4" d="M112.47,11.89A15.58,15.58,0,0,1,118.53,16a16.11,16.11,0,0,1,3.83-6.22l-.27-1.22a17.48,17.48,0,0,0-3.91,5.8,18,18,0,0,0-6-3.67Z"/><path class="cls-4" d="M111.83,9A15.58,15.58,0,0,1,117.89,13a16.11,16.11,0,0,1,3.83-6.22l-.27-1.22a17.48,17.48,0,0,0-3.91,5.8,18,18,0,0,0-6-3.67Z"/></g></g></svg>