<svg xmlns="http://www.w3.org/2000/svg" viewBox="0 0 318.9 566.93"><defs><style>.cls-1,.cls-5{fill:#fff;}.cls-1,.cls-2{opacity:0.38;}.cls-2,.cls-3,.cls-6{fill:#231f20;}.cls-4{fill:#ed1c24;}.cls-6{stroke:#231f20;stroke-linecap:round;stroke-linejoin:round;stroke-width:3.75px;}</style></defs><g id="Background"><rect id="White_BG" data-name="White BG" class="cls-1" width="318.9" height="566.93"/></g><g id="Pause"><rect id="Right" class="cls-2" x="32.78" y="14.9" width="12.73" height="27.06" rx="2.05"/><rect id="Left" class="cls-2" x="16.57" y="14.9" width="12.73" height="27.06" rx="2.05"/></g><g id="User_Options_Window" data-name="User Options Window"><path id="Black" class="cls-3" d="M290.75,190.27l-32.66,23.32-14.16,10.1-68.09,48.62-32,22.81-72.27,51.6L57.46,356.83,33.2,374.15l-11.08,7.91a27.5,27.5,0,0,1-5.93-17.12V210.14a27.72,27.72,0,0,1,27.72-27.72H271.43A27.59,27.59,0,0,1,290.75,190.27Z"/><path id="Red" class="cls-4" d="M302.15,213.14v154.8a27.72,27.72,0,0,1-27.72,27.72H46.91a27.6,27.6,0,0,1-21.79-10.6L293.75,193.27A27.62,27.62,0,0,1,302.15,213.14Z"/><polygon id="Middle_White" data-name="Middle White" class="cls-5" points="22.12 382.06 290.75 190.27 293.75 193.27 25.12 385.06 22.12 382.06"/></g><g id="Home"><path id="Home-2" data-name="Home" class="cls-6" d="M215.45,306.3c-1.92,1.71-7.56,7.2-15,14.8a5.12,5.12,0,0,0-1,1.21,5.36,5.36,0,0,0-.51,1.34l-.06,21.24a3.42,3.42,0,0,0,.7,2.1,3.3,3.3,0,0,0,1.53,1.09h8.17a3.78,3.78,0,0,0,1.53-.77,3.86,3.86,0,0,0,1.21-1.78V334a6.13,6.13,0,0,1,12.06-.57l.12,12A2.85,2.85,0,0,0,227,348l7.53.06a3.24,3.24,0,0,0,1.85-1,3.2,3.2,0,0,0,.83-1.72l.06-21.24a3.36,3.36,0,0,0-.26-1.4,3.52,3.52,0,0,0-1.14-1.47l-15.12-15a4,4,0,0,0-2.62-1.21A4.1,4.1,0,0,0,215.45,306.3Z"/></g><g id="Play"><path id="Play-2" data-name="Play" class="cls-4" d="M114.19,262.56l-28.5,16.31a7.67,7.67,0,0,1-11.49-6.66V239.59a7.67,7.67,0,0,1,11.49-6.66l28.5,16.31A7.67,7.67,0,0,1,114.19,262.56Z"/></g></svg>