<svg xmlns="http://www.w3.org/2000/svg" viewBox="0 0 285.96 213.24"><defs><style>.cls-1{fill:#231f20;}.cls-2{fill:#ed1c24;}.cls-3{fill:#fff;}</style></defs><g id="Layer_2" data-name="Layer 2"><g id="User_Options_Window" data-name="User Options Window"><path id="Black" class="cls-1" d="M274.56,7.85,241.9,31.17l-14.16,10.1L159.65,89.89,127.7,112.7,55.43,164.3,41.27,174.41,17,191.73,5.93,199.64A27.5,27.5,0,0,1,0,182.52V27.72A27.72,27.72,0,0,1,27.72,0H255.24A27.59,27.59,0,0,1,274.56,7.85Z"/><path id="Red" class="cls-2" d="M286,30.72v154.8a27.72,27.72,0,0,1-27.72,27.72H30.72a27.6,27.6,0,0,1-21.79-10.6L277.56,10.85A27.62,27.62,0,0,1,286,30.72Z"/><polygon id="Middle_White" data-name="Middle White" class="cls-3" points="5.93 199.64 274.56 7.85 277.56 10.85 8.93 202.64 5.93 199.64"/></g></g></svg>