<svg xmlns="http://www.w3.org/2000/svg" viewBox="0 0 318.9 566.93"><defs><style>.cls-1{fill:#d1d3d4;}.cls-2{fill:#fff200;}</style></defs><g id="Layer_2" data-name="Layer 2"><g id="Layer_1-2" data-name="Layer 1"><rect class="cls-1" width="318.9" height="566.93"/><path class="cls-2" d="M150.09,181.24,98.67,271.12A10.78,10.78,0,0,0,108,287.25H210.87a10.77,10.77,0,0,0,9.35-16.13l-51.41-89.88A10.79,10.79,0,0,0,150.09,181.24Z"/><path d="M159.43,208.23a9.46,9.46,0,0,1,7.06,3q3.87,3.92,3.88,11.12a35.91,35.91,0,0,1-1.66,10.27,39,39,0,0,1-4.42,9.79q-3.14,4.86-5,4.86T154,241.05a45.58,45.58,0,0,1-4-9.81,35.74,35.74,0,0,1-1.47-9.59,15.83,15.83,0,0,1,2.38-8.93A9.61,9.61,0,0,1,159.43,208.23Zm.23,44.19a9.32,9.32,0,0,1,7,3,10.14,10.14,0,1,1-17.35,7.06,9.42,9.42,0,0,1,2.76-6.87A10.13,10.13,0,0,1,159.66,252.42Z"/></g></g></svg>