<svg xmlns="http://www.w3.org/2000/svg" viewBox="0 0 318.9 566.93"><defs><style>.cls-1{fill:#d1d3d4;}.cls-2{fill:#fff200;}.cls-3,.cls-4{fill:none;stroke:#231f20;stroke-miterlimit:10;}.cls-4{stroke-width:1.13px;}</style></defs><g id="Layer_2" data-name="Layer 2"><g id="Layer_1-2" data-name="Layer 1"><rect class="cls-1" width="318.9" height="566.93"/><path class="cls-2" d="M150.09,181.24,98.67,271.12A10.78,10.78,0,0,0,108,287.25H210.87a10.77,10.77,0,0,0,9.35-16.13l-51.41-89.88A10.79,10.79,0,0,0,150.09,181.24Z"/><path d="M159.43,208.23a9.46,9.46,0,0,1,7.06,3q3.87,3.92,3.88,11.12a35.91,35.91,0,0,1-1.66,10.27,39,39,0,0,1-4.42,9.79q-3.14,4.86-5,4.86T154,241.05a45.58,45.58,0,0,1-4-9.81,35.74,35.74,0,0,1-1.47-9.59,15.83,15.83,0,0,1,2.38-8.93A9.61,9.61,0,0,1,159.43,208.23Zm.23,44.19a9.32,9.32,0,0,1,7,3,10.14,10.14,0,1,1-17.35,7.06,9.42,9.42,0,0,1,2.76-6.87A10.13,10.13,0,0,1,159.66,252.42Z"/><path d="M74.25,313.69h.84v8.52h-.84Zm.58,0h4.78v.79H74.83Zm0,4H79v.78H74.83Z"/><path d="M82.33,321.81a1.71,1.71,0,0,1-.58-1.39,1.66,1.66,0,0,1,.53-1.33,2.2,2.2,0,0,1,1.52-.47h2l.08.78H83.8a1.34,1.34,0,0,0-.9.27.9.9,0,0,0-.32.75.92.92,0,0,0,.4.8,1.93,1.93,0,0,0,1.13.28,3.87,3.87,0,0,0,1.22-.15c.29-.11.43-.26.43-.45l.13.8a1.69,1.69,0,0,1-.47.32,2.76,2.76,0,0,1-.65.21,3.94,3.94,0,0,1-.79.07A2.48,2.48,0,0,1,82.33,321.81Zm3.43-3.45a1.6,1.6,0,0,0-.39-1.15,1.5,1.5,0,0,0-1.12-.41,2.45,2.45,0,0,0-.85.15,2.27,2.27,0,0,0-.74.39l-.62-.42a2.32,2.32,0,0,1,.92-.65,3.31,3.31,0,0,1,1.25-.23,2.87,2.87,0,0,1,1.3.27,1.91,1.91,0,0,1,.82.77,2.59,2.59,0,0,1,.28,1.22v3.91h-.85Z"/><path d="M89.8,313.69h.84v.85H89.8Zm0,2.44h.84v6.08H89.8Z"/><path d="M94.68,320.61a.85.85,0,0,0,.19.6.65.65,0,0,0,.53.22H96v.78h-.7a1.33,1.33,0,0,1-1.05-.42,1.73,1.73,0,0,1-.37-1.19v-6.91h.84Z"/><path d="M99.56,322a2.1,2.1,0,0,1-.91-.93,3.19,3.19,0,0,1-.32-1.47v-.69a3.61,3.61,0,0,1,.31-1.54,2.11,2.11,0,0,1,.87-1,2.68,2.68,0,0,1,1.39-.34,2.46,2.46,0,0,1,1.3.33,2.1,2.1,0,0,1,.82,1,3.64,3.64,0,0,1,.28,1.51v.7H98.91v-.76h3.61v-.06a2.06,2.06,0,0,0-.43-1.4,1.48,1.48,0,0,0-1.19-.49,1.67,1.67,0,0,0-1.32.52,2.15,2.15,0,0,0-.46,1.48v.77a1.91,1.91,0,0,0,.49,1.41,1.84,1.84,0,0,0,1.39.51,2.12,2.12,0,0,0,.84-.18,2.26,2.26,0,0,0,.73-.5l.58.55a3.18,3.18,0,0,1-1,.67,2.92,2.92,0,0,1-1.14.24A3.06,3.06,0,0,1,99.56,322Z"/><path d="M106.94,322a1.83,1.83,0,0,1-.73-.84,3.31,3.31,0,0,1-.24-1.32v-1.33a3.38,3.38,0,0,1,.24-1.34,1.85,1.85,0,0,1,.7-.85A2,2,0,0,1,108,316a2.79,2.79,0,0,1,1.23.26,2,2,0,0,1,.84.86l-.13,1.17a1.67,1.67,0,0,0-.18-.76,1.43,1.43,0,0,0-.54-.58,1.48,1.48,0,0,0-.82-.22,1.5,1.5,0,0,0-1.18.46,1.86,1.86,0,0,0-.42,1.3v1.32a1.8,1.8,0,0,0,.42,1.27,1.53,1.53,0,0,0,1.18.45,1.5,1.5,0,0,0,.82-.22,1.64,1.64,0,0,0,.54-.6A1.7,1.7,0,0,0,110,320l.09,1.27a1.51,1.51,0,0,1-.73.8,2.86,2.86,0,0,1-1.24.24A2.13,2.13,0,0,1,106.94,322Zm3-8.32h.85v8.52H110Z"/><path d="M117.77,316.13h2.74v.73h-2.74Zm1,5.7a1.81,1.81,0,0,1-.35-1.2v-6.27h.85v6.28a1,1,0,0,0,.17.61.65.65,0,0,0,.53.21h.57v.78h-.69A1.31,1.31,0,0,1,118.74,321.83Z"/><path d="M124.33,322a2,2,0,0,1-.86-.91,3.12,3.12,0,0,1-.3-1.43v-1a3.06,3.06,0,0,1,.3-1.41,2,2,0,0,1,.86-.9,2.81,2.81,0,0,1,1.35-.31,2.87,2.87,0,0,1,1.36.31,2,2,0,0,1,.85.9,3.06,3.06,0,0,1,.3,1.41v1a3.1,3.1,0,0,1-.3,1.42,2.06,2.06,0,0,1-.85.9,2.76,2.76,0,0,1-1.36.31A2.7,2.7,0,0,1,124.33,322Zm2.58-1a2,2,0,0,0,.44-1.36v-1a1.94,1.94,0,0,0-.44-1.35,1.82,1.82,0,0,0-2.46,0,1.94,1.94,0,0,0-.43,1.35v1a2,2,0,0,0,.43,1.36,1.79,1.79,0,0,0,2.46,0Z"/><path d="M136.5,322a1.9,1.9,0,0,1-.87-.88,3.21,3.21,0,0,1-.29-1.47v-1a3.17,3.17,0,0,1,.29-1.46,2,2,0,0,1,.87-.87A3.35,3.35,0,0,1,138,316a3.72,3.72,0,0,1,.91.11,2.53,2.53,0,0,1,.73.32,2.43,2.43,0,0,1,.56.55l-.63.55a2.07,2.07,0,0,0-.7-.56,2,2,0,0,0-.86-.18,1.83,1.83,0,0,0-1.35.45,1.88,1.88,0,0,0-.45,1.38v1a1.92,1.92,0,0,0,.45,1.39,1.8,1.8,0,0,0,1.35.47,2.21,2.21,0,0,0,.91-.18,2.35,2.35,0,0,0,.74-.53l.54.54a2.34,2.34,0,0,1-.56.53,2.53,2.53,0,0,1-.73.32,3.73,3.73,0,0,1-.91.1A3.35,3.35,0,0,1,136.5,322Z"/><path d="M143.67,322a2,2,0,0,1-.86-.91,3.12,3.12,0,0,1-.3-1.43v-1a3.06,3.06,0,0,1,.3-1.41,2,2,0,0,1,.86-.9,3.09,3.09,0,0,1,2.7,0,2,2,0,0,1,.86.9,3.06,3.06,0,0,1,.3,1.41v1a3.1,3.1,0,0,1-.3,1.42,2,2,0,0,1-.86.9,3.09,3.09,0,0,1-2.7,0Zm2.58-1a2,2,0,0,0,.43-1.36v-1a1.94,1.94,0,0,0-.43-1.35,1.58,1.58,0,0,0-1.24-.48,1.57,1.57,0,0,0-1.22.48,1.94,1.94,0,0,0-.43,1.35v1a2,2,0,0,0,.43,1.36,1.79,1.79,0,0,0,2.46,0Z"/><path d="M150.43,316.13h.84v6.08h-.84Zm4,2.4a1.78,1.78,0,0,0-.42-1.26,1.62,1.62,0,0,0-1.2-.44,1.65,1.65,0,0,0-1.17.39,1.52,1.52,0,0,0-.41,1.13l-.12-1.18a2,2,0,0,1,.85-.86,2.73,2.73,0,0,1,1.24-.27,1.89,1.89,0,0,1,1.53.65,2.77,2.77,0,0,1,.54,1.83v3.69h-.84Z"/><path d="M158.33,316.13h.84v6.08h-.84Zm4,2.4a1.78,1.78,0,0,0-.42-1.26,1.59,1.59,0,0,0-1.2-.44,1.61,1.61,0,0,0-1.16.39,1.49,1.49,0,0,0-.42,1.13l-.12-1.18a2,2,0,0,1,.86-.86,2.65,2.65,0,0,1,1.23-.27,1.92,1.92,0,0,1,1.54.65,2.77,2.77,0,0,1,.54,1.83v3.69h-.85Z"/><path d="M167.28,322a2.1,2.1,0,0,1-.91-.93,3.19,3.19,0,0,1-.31-1.47v-.69a3.62,3.62,0,0,1,.3-1.54,2.08,2.08,0,0,1,.88-1,2.62,2.62,0,0,1,1.38-.34,2.44,2.44,0,0,1,1.3.33,2.1,2.1,0,0,1,.82,1,3.63,3.63,0,0,1,.29,1.51v.7h-4.4v-.76h3.61v-.06a2.11,2.11,0,0,0-.42-1.4,1.51,1.51,0,0,0-1.2-.49,1.63,1.63,0,0,0-1.31.52,2.15,2.15,0,0,0-.47,1.48v.77a2,2,0,0,0,.49,1.41,1.86,1.86,0,0,0,1.39.51,2.12,2.12,0,0,0,.84-.18,2.26,2.26,0,0,0,.73-.5l.58.55a3.07,3.07,0,0,1-1,.67,2.85,2.85,0,0,1-1.14.24A3.06,3.06,0,0,1,167.28,322Z"/><path d="M174.86,322a1.92,1.92,0,0,1-.88-.88,3.35,3.35,0,0,1-.29-1.47v-1a3.3,3.3,0,0,1,.29-1.46,2,2,0,0,1,.88-.87,3.33,3.33,0,0,1,1.46-.29,3.66,3.66,0,0,1,.91.11,2.42,2.42,0,0,1,.73.32,2.29,2.29,0,0,1,.57.55l-.63.55a2.17,2.17,0,0,0-.7-.56,2,2,0,0,0-.86-.18,1.84,1.84,0,0,0-1.36.45,1.88,1.88,0,0,0-.44,1.38v1a1.92,1.92,0,0,0,.45,1.39,1.8,1.8,0,0,0,1.35.47,2.27,2.27,0,0,0,.91-.18,2.31,2.31,0,0,0,.73-.53l.55.54a2.21,2.21,0,0,1-.57.53,2.42,2.42,0,0,1-.73.32,3.68,3.68,0,0,1-.91.1A3.33,3.33,0,0,1,174.86,322Z"/><path d="M180.58,316.13h2.74v.73h-2.74Zm1,5.7a1.87,1.87,0,0,1-.34-1.2v-6.27h.85v6.28a.92.92,0,0,0,.17.61.64.64,0,0,0,.52.21h.58v.78h-.69A1.32,1.32,0,0,1,181.54,321.83Z"/><path d="M190.11,316.13h2.74v.73h-2.74Zm1,5.7a1.81,1.81,0,0,1-.34-1.2v-6.27h.84v6.28a.92.92,0,0,0,.18.61.64.64,0,0,0,.52.21h.57v.78h-.69A1.31,1.31,0,0,1,191.08,321.83Z"/><path d="M196.67,322a2.1,2.1,0,0,1-.86-.91,3.25,3.25,0,0,1-.29-1.43v-1a3.19,3.19,0,0,1,.29-1.41,2.08,2.08,0,0,1,.86-.9,3.12,3.12,0,0,1,2.71,0,2.08,2.08,0,0,1,.86.9,3.06,3.06,0,0,1,.29,1.41v1a3.1,3.1,0,0,1-.29,1.42,2.14,2.14,0,0,1-.86.9,3.12,3.12,0,0,1-2.71,0Zm2.58-1a2,2,0,0,0,.44-1.36v-1a1.94,1.94,0,0,0-.44-1.35,1.58,1.58,0,0,0-1.23-.48,1.54,1.54,0,0,0-1.22.48,1.94,1.94,0,0,0-.44,1.35v1a2,2,0,0,0,.44,1.36,1.54,1.54,0,0,0,1.22.49A1.58,1.58,0,0,0,199.25,321Z"/><path d="M209,322.2a3.94,3.94,0,0,1-.86-.28,3.31,3.31,0,0,1-.71-.45l.48-.59a5.24,5.24,0,0,0,1,.52,3.23,3.23,0,0,0,1,.18,2.55,2.55,0,0,0,1.35-.3.94.94,0,0,0,.48-.84.73.73,0,0,0-.24-.6,1.25,1.25,0,0,0-.58-.27,7.42,7.42,0,0,0-1-.12h-.33a5.61,5.61,0,0,1-1-.18,1.32,1.32,0,0,1-.68-.44,1.39,1.39,0,0,1-.27-.93,1.66,1.66,0,0,1,1.12-1.62,3.62,3.62,0,0,1,1.31-.22,4.26,4.26,0,0,1,.8.08,4,4,0,0,1,.77.23,3.91,3.91,0,0,1,.67.36l-.49.58a4,4,0,0,0-.9-.39,3.21,3.21,0,0,0-.88-.14,2.11,2.11,0,0,0-1.19.29.92.92,0,0,0-.42.81.63.63,0,0,0,.23.54,1.23,1.23,0,0,0,.57.24,8.52,8.52,0,0,0,1,.09h.17a5.89,5.89,0,0,1,1.09.16,1.45,1.45,0,0,1,.75.49,1.6,1.6,0,0,1,.31,1.05,1.71,1.71,0,0,1-.31,1,1.94,1.94,0,0,1-.89.63,3.94,3.94,0,0,1-1.41.22A4.34,4.34,0,0,1,209,322.2Z"/><path d="M216.33,322a2.1,2.1,0,0,1-.91-.93,3.19,3.19,0,0,1-.32-1.47v-.69a3.47,3.47,0,0,1,.31-1.54,2.11,2.11,0,0,1,.87-1,2.64,2.64,0,0,1,1.38-.34,2.41,2.41,0,0,1,1.3.33,2.12,2.12,0,0,1,.83,1,3.64,3.64,0,0,1,.28,1.51v.7h-4.39v-.76h3.61v-.06a2.06,2.06,0,0,0-.43-1.4,1.48,1.48,0,0,0-1.2-.49,1.66,1.66,0,0,0-1.31.52,2.15,2.15,0,0,0-.46,1.48v.77a1.91,1.91,0,0,0,.49,1.41,1.84,1.84,0,0,0,1.39.51,2,2,0,0,0,.83-.18,2.2,2.2,0,0,0,.74-.5l.57.55a3,3,0,0,1-1,.67,2.92,2.92,0,0,1-1.14.24A3.06,3.06,0,0,1,216.33,322Z"/><path d="M222.91,316.13h.85v6.08h-.85Zm3.11.8a1.91,1.91,0,0,0-.66-.1,1.59,1.59,0,0,0-1.18.41,1.48,1.48,0,0,0-.42,1.12l-.13-1.17a2.55,2.55,0,0,1,.88-.85,2.42,2.42,0,0,1,1.19-.3,2.27,2.27,0,0,1,.75.12,1.71,1.71,0,0,1,.59.36l-.55.7A1.07,1.07,0,0,0,226,316.93Z"/><path d="M233.17,316.13h.89l-2.4,6.08H231l-2.4-6.08h.9l1.84,5Z"/><path d="M237.37,322a2.12,2.12,0,0,1-.92-.93,3.32,3.32,0,0,1-.31-1.47v-.69a3.62,3.62,0,0,1,.3-1.54,2.13,2.13,0,0,1,.88-1,2.62,2.62,0,0,1,1.38-.34,2.44,2.44,0,0,1,1.3.33,2.12,2.12,0,0,1,.83,1,3.8,3.8,0,0,1,.28,1.51v.7h-4.4v-.76h3.61v-.06a2.11,2.11,0,0,0-.42-1.4,1.48,1.48,0,0,0-1.2-.49,1.65,1.65,0,0,0-1.31.52,2.15,2.15,0,0,0-.46,1.48v.77a1.91,1.91,0,0,0,.49,1.41,1.84,1.84,0,0,0,1.39.51,2,2,0,0,0,.83-.18,2.3,2.3,0,0,0,.74-.5l.57.55a3.07,3.07,0,0,1-1,.67,2.83,2.83,0,0,1-1.13.24A3,3,0,0,1,237.37,322Z"/><path d="M244,316.13h.84v6.08H244Zm3.11.8a1.91,1.91,0,0,0-.66-.1,1.59,1.59,0,0,0-1.18.41,1.45,1.45,0,0,0-.43,1.12l-.12-1.17a2.47,2.47,0,0,1,.88-.85,2.38,2.38,0,0,1,1.18-.3,2.29,2.29,0,0,1,.76.12,1.71,1.71,0,0,1,.59.36l-.55.7A1.07,1.07,0,0,0,247.06,316.93Z"/><circle class="cls-3" cx="159.4" cy="391.91" r="18.38"/><line class="cls-4" x1="149.12" y1="381.57" x2="169.67" y2="402.25"/><line class="cls-4" x1="169.74" y1="381.64" x2="149.06" y2="402.19"/></g></g></svg>