<svg xmlns="http://www.w3.org/2000/svg" viewBox="0 0 173.83 8.61"><g id="Layer_2" data-name="Layer 2"><g id="Layer_1-2" data-name="Layer 1"><path d="M1.05,1.74H1.9v8.52H1.05Zm.59,0H6.42v.79H1.64Zm0,4H5.77V6.5H1.64Z" transform="translate(-1.05 -1.74)"/><path d="M9.14,9.86a1.73,1.73,0,0,1-.59-1.39,1.69,1.69,0,0,1,.54-1.34,2.24,2.24,0,0,1,1.51-.47h2l.08.79h-2.1a1.4,1.4,0,0,0-.9.26.92.92,0,0,0-.32.76.92.92,0,0,0,.4.8,1.91,1.91,0,0,0,1.13.28,3.6,3.6,0,0,0,1.22-.16c.29-.1.43-.25.43-.44l.13.79a1.52,1.52,0,0,1-.47.33,2.92,2.92,0,0,1-.65.21,4.84,4.84,0,0,1-.79.07A2.54,2.54,0,0,1,9.14,9.86ZM12.57,6.4a1.58,1.58,0,0,0-.39-1.14,1.51,1.51,0,0,0-1.12-.41,2.7,2.7,0,0,0-.85.14,2.5,2.5,0,0,0-.74.4L8.85,5a2.36,2.36,0,0,1,.91-.65A3.4,3.4,0,0,1,11,4.09a2.9,2.9,0,0,1,1.3.27,1.85,1.85,0,0,1,.82.77,2.59,2.59,0,0,1,.28,1.22v3.91h-.85Z" transform="translate(-1.05 -1.74)"/><path d="M16.61,1.74h.84v.84h-.84Zm0,2.44h.84v6.08h-.84Z" transform="translate(-1.05 -1.74)"/><path d="M21.49,8.66a.85.85,0,0,0,.19.6.68.68,0,0,0,.53.21h.56v.79h-.7A1.33,1.33,0,0,1,21,9.84a1.73,1.73,0,0,1-.37-1.19V1.74h.84Z" transform="translate(-1.05 -1.74)"/><path d="M26.37,10a2.15,2.15,0,0,1-.91-.93,3.2,3.2,0,0,1-.32-1.48V6.94a3.44,3.44,0,0,1,.31-1.54,2.19,2.19,0,0,1,.87-1,2.74,2.74,0,0,1,1.38-.33,2.41,2.41,0,0,1,1.3.33,2.12,2.12,0,0,1,.83,1,3.64,3.64,0,0,1,.28,1.51v.7H25.72V6.83h3.61V6.77a2.06,2.06,0,0,0-.43-1.4,1.48,1.48,0,0,0-1.2-.49,1.66,1.66,0,0,0-1.31.52,2.12,2.12,0,0,0-.46,1.47v.78a1.91,1.91,0,0,0,.49,1.41,1.84,1.84,0,0,0,1.39.5,2.2,2.2,0,0,0,.83-.17,2.36,2.36,0,0,0,.74-.5l.57.55a3.19,3.19,0,0,1-1,.67,2.92,2.92,0,0,1-1.14.24A3.06,3.06,0,0,1,26.37,10Z" transform="translate(-1.05 -1.74)"/><path d="M33.74,10.06A2,2,0,0,1,33,9.22a3.33,3.33,0,0,1-.24-1.33V6.57A3.34,3.34,0,0,1,33,5.23a1.8,1.8,0,0,1,.7-.85,2,2,0,0,1,1.1-.29A2.74,2.74,0,0,1,36,4.35a1.92,1.92,0,0,1,.84.85l-.12,1.18a1.67,1.67,0,0,0-.18-.76,1.49,1.49,0,0,0-1.37-.8A1.48,1.48,0,0,0,34,5.28a1.84,1.84,0,0,0-.42,1.29V7.89A1.83,1.83,0,0,0,34,9.17a1.57,1.57,0,0,0,2.53-.37A1.62,1.62,0,0,0,36.76,8l.08,1.27a1.43,1.43,0,0,1-.72.8,2.71,2.71,0,0,1-1.24.25A2.19,2.19,0,0,1,33.74,10.06Zm3-8.32h.85v8.52h-.85Z" transform="translate(-1.05 -1.74)"/><path d="M44.58,4.18h2.74V4.9H44.58Zm1,5.7a1.81,1.81,0,0,1-.35-1.2V2.41h.85V8.69a.89.89,0,0,0,.17.6.64.64,0,0,0,.52.21h.58v.79h-.69A1.32,1.32,0,0,1,45.55,9.88Z" transform="translate(-1.05 -1.74)"/><path d="M51.14,10a2,2,0,0,1-.86-.91A3.12,3.12,0,0,1,50,7.7v-1a3.13,3.13,0,0,1,.3-1.42,2,2,0,0,1,.86-.89,3.09,3.09,0,0,1,2.7,0,2,2,0,0,1,.86.89A3.13,3.13,0,0,1,55,6.71v1a3.1,3.1,0,0,1-.3,1.42,2,2,0,0,1-.86.9,3.09,3.09,0,0,1-2.7,0Zm2.58-1a2,2,0,0,0,.43-1.36v-1a1.94,1.94,0,0,0-.43-1.35,1.58,1.58,0,0,0-1.24-.48,1.57,1.57,0,0,0-1.22.48,1.94,1.94,0,0,0-.43,1.35v1a2,2,0,0,0,.43,1.36,1.57,1.57,0,0,0,1.22.48A1.58,1.58,0,0,0,53.72,9.08Z" transform="translate(-1.05 -1.74)"/><path d="M63.31,10.05a1.9,1.9,0,0,1-.88-.87,3.38,3.38,0,0,1-.29-1.47v-1a3.15,3.15,0,0,1,.3-1.45,1.84,1.84,0,0,1,.87-.87,3.35,3.35,0,0,1,1.47-.29,3.58,3.58,0,0,1,.9.11,2.48,2.48,0,0,1,.74.32,2.2,2.2,0,0,1,.56.54l-.63.56a2,2,0,0,0-.7-.56,2,2,0,0,0-.86-.18,1.83,1.83,0,0,0-1.35.45A1.87,1.87,0,0,0,63,6.7v1a1.92,1.92,0,0,0,.45,1.39,1.8,1.8,0,0,0,1.35.46,2.38,2.38,0,0,0,.91-.17,2.2,2.2,0,0,0,.73-.54l.55.54a2.2,2.2,0,0,1-.56.54,2.46,2.46,0,0,1-.74.31,3.58,3.58,0,0,1-.9.11A3.21,3.21,0,0,1,63.31,10.05Z" transform="translate(-1.05 -1.74)"/><path d="M70.48,10a2,2,0,0,1-.86-.91,3.12,3.12,0,0,1-.3-1.43v-1a3.13,3.13,0,0,1,.3-1.42,2,2,0,0,1,.86-.89,3.09,3.09,0,0,1,2.7,0,2,2,0,0,1,.86.89,3.13,3.13,0,0,1,.3,1.42v1A3.1,3.1,0,0,1,74,9.14a2.08,2.08,0,0,1-.86.9,3.09,3.09,0,0,1-2.7,0Zm2.58-1a2,2,0,0,0,.43-1.36v-1a1.94,1.94,0,0,0-.43-1.35,1.6,1.6,0,0,0-1.24-.48,1.57,1.57,0,0,0-1.22.48,1.94,1.94,0,0,0-.43,1.35v1a2,2,0,0,0,.43,1.36,1.57,1.57,0,0,0,1.22.48A1.6,1.6,0,0,0,73.06,9.08Z" transform="translate(-1.05 -1.74)"/><path d="M77.24,4.18h.84v6.08h-.84Zm4,2.39a1.73,1.73,0,0,0-.43-1.25,1.55,1.55,0,0,0-1.19-.44,1.65,1.65,0,0,0-1.17.39,1.5,1.5,0,0,0-.41,1.12L78,5.22a1.91,1.91,0,0,1,.85-.86,2.73,2.73,0,0,1,1.24-.27,1.89,1.89,0,0,1,1.53.65,2.77,2.77,0,0,1,.54,1.83v3.69h-.84Z" transform="translate(-1.05 -1.74)"/><path d="M85.14,4.18H86v6.08h-.84Zm4,2.39a1.77,1.77,0,0,0-.42-1.25,1.57,1.57,0,0,0-1.2-.44,1.61,1.61,0,0,0-1.16.39A1.46,1.46,0,0,0,86,6.39l-.12-1.17a1.88,1.88,0,0,1,.86-.86A2.65,2.65,0,0,1,88,4.09a1.89,1.89,0,0,1,1.53.65A2.72,2.72,0,0,1,90,6.57v3.69h-.85Z" transform="translate(-1.05 -1.74)"/><path d="M94.09,10a2.15,2.15,0,0,1-.91-.93,3.2,3.2,0,0,1-.31-1.48V6.94a3.58,3.58,0,0,1,.3-1.54,2.19,2.19,0,0,1,.87-1,2.78,2.78,0,0,1,1.39-.33,2.46,2.46,0,0,1,1.3.33,2.1,2.1,0,0,1,.82,1,3.64,3.64,0,0,1,.28,1.51v.7H93.44V6.83h3.61V6.77a2.11,2.11,0,0,0-.42-1.4,1.51,1.51,0,0,0-1.2-.49,1.67,1.67,0,0,0-1.32.52,2.17,2.17,0,0,0-.46,1.47v.78a2,2,0,0,0,.49,1.41,1.84,1.84,0,0,0,1.39.5,2.29,2.29,0,0,0,.84-.17,2.43,2.43,0,0,0,.73-.5l.58.55a3.36,3.36,0,0,1-1,.67,2.88,2.88,0,0,1-1.14.24A3.06,3.06,0,0,1,94.09,10Z" transform="translate(-1.05 -1.74)"/><path d="M101.67,10.05a1.86,1.86,0,0,1-.88-.87,3.38,3.38,0,0,1-.29-1.47v-1a3.28,3.28,0,0,1,.29-1.45,1.9,1.9,0,0,1,.88-.87,3.3,3.3,0,0,1,1.46-.29,3.66,3.66,0,0,1,.91.11,2.42,2.42,0,0,1,.73.32,2.05,2.05,0,0,1,.56.54l-.62.56a1.91,1.91,0,0,0-1.56-.74,1.84,1.84,0,0,0-1.36.45,1.87,1.87,0,0,0-.45,1.37v1a1.92,1.92,0,0,0,.45,1.39,1.84,1.84,0,0,0,1.36.46,2.37,2.37,0,0,0,.9-.17,2.14,2.14,0,0,0,.74-.54l.54.54a2.05,2.05,0,0,1-.56.54,2.4,2.4,0,0,1-.73.31,3.66,3.66,0,0,1-.91.11A3.16,3.16,0,0,1,101.67,10.05Z" transform="translate(-1.05 -1.74)"/><path d="M107.38,4.18h2.75V4.9h-2.75Zm1,5.7a1.87,1.87,0,0,1-.34-1.2V2.41h.84V8.69a.9.9,0,0,0,.18.6.64.64,0,0,0,.52.21h.58v.79h-.7A1.34,1.34,0,0,1,108.35,9.88Z" transform="translate(-1.05 -1.74)"/><path d="M116.92,4.18h2.74V4.9h-2.74Zm1,5.7a1.81,1.81,0,0,1-.34-1.2V2.41h.84V8.69a.9.9,0,0,0,.18.6.63.63,0,0,0,.52.21h.57v.79H119A1.34,1.34,0,0,1,117.89,9.88Z" transform="translate(-1.05 -1.74)"/><path d="M123.48,10a2.1,2.1,0,0,1-.86-.91,3.25,3.25,0,0,1-.29-1.43v-1a3.27,3.27,0,0,1,.29-1.42,2.06,2.06,0,0,1,.86-.89,3.12,3.12,0,0,1,2.71,0,2.06,2.06,0,0,1,.86.89,3.27,3.27,0,0,1,.29,1.42v1a3.24,3.24,0,0,1-.29,1.42,2.14,2.14,0,0,1-.86.9,3.12,3.12,0,0,1-2.71,0Zm2.58-1a2,2,0,0,0,.44-1.36v-1a1.94,1.94,0,0,0-.44-1.35,1.82,1.82,0,0,0-2.46,0,2,2,0,0,0-.43,1.35v1a2,2,0,0,0,.43,1.36,1.82,1.82,0,0,0,2.46,0Z" transform="translate(-1.05 -1.74)"/><path d="M135.8,10.25a3.94,3.94,0,0,1-.86-.28,3.31,3.31,0,0,1-.71-.45l.48-.6a4.16,4.16,0,0,0,1,.52,3,3,0,0,0,1,.19,2.55,2.55,0,0,0,1.35-.3.94.94,0,0,0,.47-.85.71.71,0,0,0-.23-.59,1.12,1.12,0,0,0-.58-.27,7.42,7.42,0,0,0-1-.12h-.33a5.61,5.61,0,0,1-1-.18,1.39,1.39,0,0,1-.68-.44,1.39,1.39,0,0,1-.27-.93,1.73,1.73,0,0,1,.29-1,1.68,1.68,0,0,1,.83-.62,3.42,3.42,0,0,1,1.31-.22,4.34,4.34,0,0,1,.8.08,3.73,3.73,0,0,1,.76.23,3.66,3.66,0,0,1,.68.36l-.49.58a4,4,0,0,0-.9-.39,3.27,3.27,0,0,0-.88-.14,2.11,2.11,0,0,0-1.19.29.92.92,0,0,0-.42.81.65.65,0,0,0,.22.54,1.32,1.32,0,0,0,.58.24c.23,0,.55.07,1,.09h.17a5.15,5.15,0,0,1,1.09.16,1.39,1.39,0,0,1,.75.49,1.59,1.59,0,0,1,.3,1,1.68,1.68,0,0,1-.3,1,1.89,1.89,0,0,1-.89.64,4.17,4.17,0,0,1-1.41.22A4.34,4.34,0,0,1,135.8,10.25Z" transform="translate(-1.05 -1.74)"/><path d="M143.14,10a2.1,2.1,0,0,1-.91-.93,3.2,3.2,0,0,1-.32-1.48V6.94a3.58,3.58,0,0,1,.3-1.54,2.27,2.27,0,0,1,.88-1,2.71,2.71,0,0,1,1.38-.33,2.44,2.44,0,0,1,1.3.33,2.12,2.12,0,0,1,.83,1,3.64,3.64,0,0,1,.28,1.51v.7h-4.39V6.83h3.61V6.77a2.11,2.11,0,0,0-.43-1.4,1.48,1.48,0,0,0-1.2-.49,1.66,1.66,0,0,0-1.31.52,2.12,2.12,0,0,0-.46,1.47v.78a1.91,1.91,0,0,0,.49,1.41,1.84,1.84,0,0,0,1.39.5,2.2,2.2,0,0,0,.83-.17,2.48,2.48,0,0,0,.74-.5l.57.55a3.13,3.13,0,0,1-1,.67,2.83,2.83,0,0,1-1.13.24A3.06,3.06,0,0,1,143.14,10Z" transform="translate(-1.05 -1.74)"/><path d="M149.72,4.18h.85v6.08h-.85Zm3.11.79a2.19,2.19,0,0,0-.66-.09,1.62,1.62,0,0,0-1.18.4,1.5,1.5,0,0,0-.42,1.13l-.13-1.17a2.47,2.47,0,0,1,.88-.85,2.41,2.41,0,0,1,1.18-.3,2.29,2.29,0,0,1,.76.12,1.85,1.85,0,0,1,.59.35l-.55.71A1.19,1.19,0,0,0,152.83,5Z" transform="translate(-1.05 -1.74)"/><path d="M160,4.18h.9l-2.4,6.08h-.67l-2.4-6.08h.89l1.84,5Z" transform="translate(-1.05 -1.74)"/><path d="M164.17,10a2.21,2.21,0,0,1-.91-.93A3.2,3.2,0,0,1,163,7.62V6.94a3.58,3.58,0,0,1,.3-1.54,2.15,2.15,0,0,1,.88-1,2.71,2.71,0,0,1,1.38-.33,2.44,2.44,0,0,1,1.3.33,2.1,2.1,0,0,1,.82,1,3.63,3.63,0,0,1,.29,1.51v.7h-4.4V6.83h3.61V6.77a2.11,2.11,0,0,0-.42-1.4,1.5,1.5,0,0,0-1.2-.49,1.65,1.65,0,0,0-1.31.52,2.13,2.13,0,0,0-.47,1.47v.78a1.91,1.91,0,0,0,.5,1.41,1.82,1.82,0,0,0,1.39.5,2.24,2.24,0,0,0,.83-.17,2.48,2.48,0,0,0,.74-.5l.57.55a3.24,3.24,0,0,1-1,.67,2.83,2.83,0,0,1-1.13.24A3.08,3.08,0,0,1,164.17,10Z" transform="translate(-1.05 -1.74)"/><path d="M170.76,4.18h.84v6.08h-.84Zm3.11.79a2.19,2.19,0,0,0-.66-.09,1.66,1.66,0,0,0-1.19.4,1.5,1.5,0,0,0-.42,1.13l-.12-1.17a2.32,2.32,0,0,1,.88-.85,2.38,2.38,0,0,1,1.18-.3,2.19,2.19,0,0,1,.75.12,1.65,1.65,0,0,1,.59.35l-.54.71A1.27,1.27,0,0,0,173.87,5Z" transform="translate(-1.05 -1.74)"/></g></g></svg>