<svg xmlns="http://www.w3.org/2000/svg" viewBox="0 0 21.68 28.58"><defs><style>.cls-1{fill:#fff;}</style></defs><g id="Layer_2" data-name="Layer 2"><g id="Achievements"><path id="Handle" class="cls-1" d="M17.76,1.86V13H16.52a1.34,1.34,0,0,1-1.29-.92l-1.66-5a2.88,2.88,0,0,0-5.46,0l-1.66,5A1.34,1.34,0,0,1,5.16,13H3.92V1.86A1.86,1.86,0,0,1,5.78,0H15.9A1.86,1.86,0,0,1,17.76,1.86Z"/><path id="star" class="cls-1" d="M15.81,21.38l1.13,3.46.87,2.68a.81.81,0,0,1-1.25.9l-4.51-3.28-.7-.51a.87.87,0,0,0-1,0l-.7.51L5.12,28.42a.81.81,0,0,1-1.25-.9l.87-2.68,1.13-3.46a.85.85,0,0,0-.32-.95L3.92,19.24.34,16.63a.81.81,0,0,1,.47-1.46H7.26a.87.87,0,0,0,.82-.59l2-6.14a.81.81,0,0,1,1.54,0l2,6.14a.87.87,0,0,0,.82.59h6.45a.81.81,0,0,1,.47,1.46l-3.58,2.61-1.63,1.19A.85.85,0,0,0,15.81,21.38Z"/></g></g></svg>