<svg xmlns="http://www.w3.org/2000/svg" viewBox="0 0 318.95 566.95"><defs><style>.cls-1{fill:#fff;}.cls-2{fill:#231f20;}.cls-3{fill:#ed1c24;}.cls-4{fill:#fff408;}</style></defs><g id="Layer_2" data-name="Layer 2"><g id="Background"><rect id="white_background" data-name="white background" class="cls-1" x="0.06" y="0.02" width="318.9" height="566.93"/><polygon class="cls-2" points="318.93 479.98 318.93 566.94 231.41 566.94 258.49 540.03 258.49 539.99 267.81 530.73 267.85 530.73 318.93 479.98"/><polygon class="cls-3" points="318.89 429.12 318.89 479.97 267.81 530.73 258.49 539.99 231.38 566.93 193.24 566.93 318.89 429.12"/><path id="Black" class="cls-2" d="M231,158.51l4-7.21V112.45a3.44,3.44,0,0,1,6.88,0v26.4l4.48-8.1h0A12.95,12.95,0,0,1,255.84,109a13.45,13.45,0,0,1,2.39.22L272.64,83.1,318.55,0H0V566.93"/><polygon id="Yellow" class="cls-4" points="158.27 566.93 193.24 566.93 318.75 429.28 318.55 378.46 158.27 566.93"/></g></g></svg>