<svg xmlns="http://www.w3.org/2000/svg" viewBox="0 0 276.6 50"><defs><style>.cls-1{fill:#ed1c24;}.cls-2{fill:#fff408;}.cls-3{fill:#fff;}</style></defs><g id="Layer_2" data-name="Layer 2"><g id="Hexcape"><g id="Hexcape_symbol" data-name="Hexcape symbol"><path id="Red" class="cls-1" d="M244.59,13.41a13,13,0,0,1-22.47,8.83h0L234,.68A13,13,0,0,1,244.59,13.41Z"/><path id="yellow" class="cls-2" d="M234.06.68,222.15,22.23A13,13,0,0,1,231.66.46,13.65,13.65,0,0,1,234.06.68Z"/></g><g id="Hexcape_Text" data-name="Hexcape Text"><path id="H" class="cls-3" d="M34.74,3.94V46.06a3.44,3.44,0,0,1-3.44,3.43,3.45,3.45,0,0,1-3.44-3.43V28.64h-21V46.06a3.44,3.44,0,0,1-3.44,3.43A3.45,3.45,0,0,1,0,46.06V3.94a3.44,3.44,0,0,1,6.88,0V22.1h21V3.94a3.44,3.44,0,0,1,6.88,0Z"/><path id="E_white" data-name="E white" class="cls-3" d="M53.49.5H75.11a3.27,3.27,0,0,1,3.27,3.27h0A3.26,3.26,0,0,1,75.11,7H53.49a3.27,3.27,0,0,1-3.27-3.27h0A3.28,3.28,0,0,1,53.49.5Zm0,21.4H74.4a3.27,3.27,0,0,1,3.28,3.27h0a3.28,3.28,0,0,1-3.28,3.27H53.49a3.28,3.28,0,0,1-3.27-3.27h0A3.27,3.27,0,0,1,53.49,21.9Zm0,21.06H75.11a3.26,3.26,0,0,1,3.27,3.26h0a3.26,3.26,0,0,1-3.27,3.27H53.49a3.27,3.27,0,0,1-3.27-3.27h0A3.27,3.27,0,0,1,53.49,43Z"/><path id="E_black" data-name="E black" d="M251.71.5h21.62a3.28,3.28,0,0,1,3.27,3.27h0A3.27,3.27,0,0,1,273.33,7H251.71a3.27,3.27,0,0,1-3.28-3.27h0A3.28,3.28,0,0,1,251.71.5Zm0,21.4h20.91a3.26,3.26,0,0,1,3.27,3.27h0a3.27,3.27,0,0,1-3.27,3.27H251.71a3.28,3.28,0,0,1-3.28-3.27h0A3.27,3.27,0,0,1,251.71,21.9Zm0,21.06h21.62a3.27,3.27,0,0,1,3.27,3.26h0a3.27,3.27,0,0,1-3.27,3.27H251.71a3.27,3.27,0,0,1-3.28-3.27h0A3.27,3.27,0,0,1,251.71,43Z"/><path id="X" class="cls-3" d="M114.76,49.49h0a3.28,3.28,0,0,1-2.81-1.6L101.63,30.47,91.44,47.87a3.26,3.26,0,0,1-2.82,1.62h0a3.27,3.27,0,0,1-2.8-5L98,24.5l-11.74-19a3.27,3.27,0,1,1,5.6-3.38l9.73,16.4L111.2,2.12A3.26,3.26,0,0,1,114,.51h0a3.27,3.27,0,0,1,2.79,5l-11.62,19,12.33,20A3.26,3.26,0,0,1,114.76,49.49Z"/><path id="C" class="cls-3" d="M132.43,47.74a15.29,15.29,0,0,1-6-6.4,20.7,20.7,0,0,1-2.13-9.6V18.29a20.76,20.76,0,0,1,2.13-9.6,15.46,15.46,0,0,1,6-6.42,17.4,17.4,0,0,1,9-2.27,16.84,16.84,0,0,1,7.75,1.8,16.25,16.25,0,0,1,5.92,5.11,17.28,17.28,0,0,1,1.62,2.72,3.42,3.42,0,0,1-3.06,4.92h-.05a3.33,3.33,0,0,1-3-1.82,10.71,10.71,0,0,0-1.46-2.27,10.46,10.46,0,0,0-3.52-2.78,9.49,9.49,0,0,0-12.95,4.53,14,14,0,0,0-1.25,6.08V31.74a14,14,0,0,0,1.25,6.06,9.26,9.26,0,0,0,8.77,5.49,10,10,0,0,0,4.2-.91,9.83,9.83,0,0,0,3.5-2.69,10.34,10.34,0,0,0,1.44-2.26,3.41,3.41,0,0,1,3.09-2h0a3.42,3.42,0,0,1,3,4.93,18.08,18.08,0,0,1-1.62,2.72A16.53,16.53,0,0,1,141.39,50,17.39,17.39,0,0,1,132.43,47.74Z"/><path id="A" class="cls-3" d="M181.81.5h1.05a3.47,3.47,0,0,1,3.24,2.26l15.53,42.09a3.45,3.45,0,0,1-3.24,4.64h0a3.45,3.45,0,0,1-3.27-2.33L182.33,10,169.54,47.16a3.45,3.45,0,0,1-3.27,2.33h0A3.45,3.45,0,0,1,163,44.85L178.56,2.76A3.48,3.48,0,0,1,181.81.5Z"/><path id="P_lower" data-name="P lower" d="M210.77,42.79v3.27a3.44,3.44,0,0,0,6.87,0V30.34Z"/><path id="P_upper" data-name="P upper" class="cls-3" d="M217.64,3.94v26.4l-6.87,12.45V3.94a3.44,3.44,0,0,1,6.87,0Z"/></g></g></g></svg>