<svg xmlns="http://www.w3.org/2000/svg" viewBox="0 0 25.75 34.01"><defs><style>.cls-1{fill:#231f20;}</style></defs><g id="Layer_2" data-name="Layer 2"><g id="music"><path id="Music_logo" data-name="Music logo" class="cls-1" d="M.18,31.34A3.94,3.94,0,0,0,1.81,33.4a4.9,4.9,0,0,0,4.12.28,5.63,5.63,0,0,0,2.73-1.91,5.65,5.65,0,0,0,1.15-3.64q0-8,0-15.94a.94.94,0,0,1,.75-.93L22.3,8.87a.94.94,0,0,1,1.13.91l0,10.71a1.31,1.31,0,0,1-1.41,1.3,5.43,5.43,0,0,0-1,0,5.37,5.37,0,0,0-3.84,1.87,4.43,4.43,0,0,0-.91,4,4.26,4.26,0,0,0,2.59,2.58,5,5,0,0,0,4.31-.57A4.9,4.9,0,0,0,25.53,27a4,4,0,0,0,.15-1.49c-.15-1.75-.09-10.89.07-24.1A1.36,1.36,0,0,0,24.11,0L8.65,3.2A1.36,1.36,0,0,0,7.56,4.53q0,9.63,0,19.25a1.28,1.28,0,0,1-1.24,1.29,8.68,8.68,0,0,0-1.49.19,6,6,0,0,0-3.16,1.38A5,5,0,0,0,.08,29.37,4,4,0,0,0,.18,31.34Z"/></g></g></svg>