<svg xmlns="http://www.w3.org/2000/svg" viewBox="0 0 59.42 59.36"><defs><style>.cls-1{fill:#231f20;}.cls-2{fill:#fff;}</style></defs><g id="Layer_2" data-name="Layer 2"><g id="play_button" data-name="play button"><path id="Right_circular_part" data-name="Right circular part" class="cls-1" d="M59.42,29.68a29.72,29.72,0,0,1-45.09,25.4l1.84-3.29A25.92,25.92,0,1,0,41.5,6.6l1.85-3.28A29.63,29.63,0,0,1,59.42,29.68Z"/><path id="Left_circular_part" data-name="Left circular part" class="cls-2" d="M43.35,3.32,41.5,6.6A25.92,25.92,0,0,0,16.17,51.79l-1.84,3.29a29.69,29.69,0,0,1,29-51.76Z"/><path id="Right_triangular_part" data-name="Right triangular part" class="cls-1" d="M46.1,33.4,25.3,45.29a5.55,5.55,0,0,1-5.51,0l2.26-4a2.35,2.35,0,0,0,2.54.12L43.47,30.6a2.38,2.38,0,0,0,0-4.12l-9.93-5.67,1.83-3.26L46.1,23.69A5.6,5.6,0,0,1,46.1,33.4Z"/><path id="Left_triangular_part" data-name="Left triangular part" class="cls-2" d="M35.37,17.55l-1.83,3.26-8.95-5.12A2.37,2.37,0,0,0,21,17.75V39.33a2.36,2.36,0,0,0,1,2l-2.26,4a5.54,5.54,0,0,1-2.87-4.88V16.65a5.6,5.6,0,0,1,8.38-4.86Z"/></g></g></svg>