<svg xmlns="http://www.w3.org/2000/svg" viewBox="0 0 38.27 34.63"><defs><style>.cls-1{fill:#231f20;}</style></defs><g id="Layer_2" data-name="Layer 2"><g id="Quit"><path id="quit_door" data-name="quit door" class="cls-1" d="M38.27,2.58V32.06a2.62,2.62,0,0,1-2.66,2.57H21.33a.92.92,0,0,1-.95-.91v-3a.93.93,0,0,1,.95-.91H32.38a.74.74,0,0,0,.75-.73V5.6a.74.74,0,0,0-.75-.72H21.33A.93.93,0,0,1,20.38,4v-3A.93.93,0,0,1,21.33,0H35.61A2.62,2.62,0,0,1,38.27,2.58Z"/><path id="quit_arrow" data-name="quit arrow" class="cls-1" d="M12.37,13.17l10.54.77A3.38,3.38,0,0,1,26.19,17a3.35,3.35,0,0,1-2.69,3.45l-11.1,1,3,2.18a3.47,3.47,0,0,1,.33,4.82,3.76,3.76,0,0,1-5.06.53,29.28,29.28,0,0,1-5.41-4.08A28.26,28.26,0,0,1,.4,18.72,3,3,0,0,1,0,17.11a3,3,0,0,1,.66-1.73,34.77,34.77,0,0,1,4.25-5.17A35.61,35.61,0,0,1,10.59,5.6a4,4,0,0,1,4.72.18,3.56,3.56,0,0,1,1.13,3.69,3.37,3.37,0,0,1-.84,1.38Z"/></g></g></svg>