<svg xmlns="http://www.w3.org/2000/svg" viewBox="0 0 41.72 13.22"><defs><style>.cls-1{fill:#fff;}</style></defs><g id="Layer_2" data-name="Layer 2"><g id="Rate"><g id="Text"><path class="cls-1" d="M8.89,11.8A1,1,0,0,1,8,13.22a1,1,0,0,1-.86-.53L4.53,7.42a.42.42,0,0,1-.1-.2.32.32,0,0,1,0-.14V6.42A.55.55,0,0,1,5,5.87h.36a1.71,1.71,0,0,0,.93-.25,1.63,1.63,0,0,0,.64-.73,2.44,2.44,0,0,0,.22-1.07,2.45,2.45,0,0,0-.22-1.08,1.68,1.68,0,0,0-1.57-1H2.84a1,1,0,0,0-1,1v9.52a.94.94,0,0,1-.74.94A.92.92,0,0,1,0,12.3V1.85A1.85,1.85,0,0,1,1.86,0H5.25a4.2,4.2,0,0,1,2,.47A3.32,3.32,0,0,1,8.6,1.81a4.09,4.09,0,0,1,.48,2,4.05,4.05,0,0,1-.48,2A3.29,3.29,0,0,1,7.25,7.16a3.85,3.85,0,0,1-.66.28Z"/><path class="cls-1" d="M20.4,13.22a1,1,0,0,1-.55-.17.93.93,0,0,1-.33-.45l-3.45-10-3.45,10a.93.93,0,0,1-1.81-.31,1,1,0,0,1,.06-.32L15,.75A1.15,1.15,0,0,1,16.07,0a1.14,1.14,0,0,1,1.06.74L21.27,12A.93.93,0,0,1,20.4,13.22Z"/><path class="cls-1" d="M30.61,1.51a.88.88,0,0,1-.62.26H27.14V12.3a.93.93,0,0,1-.93.92.9.9,0,0,1-.65-.27.92.92,0,0,1-.28-.65V1.77H22.43a.88.88,0,0,1-.62-1.5A.86.86,0,0,1,22.43,0H30a.87.87,0,0,1,.88.88A.86.86,0,0,1,30.61,1.51Z"/><path class="cls-1" d="M41.46,13a.87.87,0,0,1-.62.25H34.47a.88.88,0,0,1,0-1.76h6.37a.89.89,0,0,1,.88.88A.9.9,0,0,1,41.46,13Z"/><path class="cls-1" d="M33.59,6.66a.89.89,0,0,1,.88-.88h6.18a.89.89,0,0,1,.88.88.88.88,0,0,1-.26.62.84.84,0,0,1-.62.26H34.47A.87.87,0,0,1,33.59,6.66Z"/><path class="cls-1" d="M41.46,1.51a.88.88,0,0,1-.62.26H34.47a.88.88,0,0,1,0-1.76h6.37a.88.88,0,0,1,.88.88A.86.86,0,0,1,41.46,1.51Z"/></g></g></g></svg>