<svg xmlns="http://www.w3.org/2000/svg" viewBox="0 0 318.9 566.93"><defs><style>.cls-1{fill:#fff;}.cls-2{fill:#ed1c24;}.cls-3{fill:#231f20;}.cls-4{fill:#fff408;}</style></defs><g id="Background"><rect id="white_background" data-name="white background" class="cls-1" x="0.03" y="0.01" width="318.9" height="566.93"/><polygon class="cls-2" points="318.87 429.11 318.87 479.96 267.78 530.72 258.46 539.98 231.35 566.92 193.21 566.92 318.87 429.11"/><path id="Black" class="cls-3" d="M231,158.5l4-7.21V112.44a3.44,3.44,0,0,1,6.87,0v26.4l4.48-8.1h0A12.95,12.95,0,0,1,255.81,109a13.45,13.45,0,0,1,2.39.22l14.42-26.09L318.53,0H0V566.92"/><polygon id="Yellow" class="cls-4" points="158.24 566.92 193.21 566.92 318.72 429.27 318.53 378.45 158.24 566.92"/></g><g id="Achievements"><path id="Handle" class="cls-1" d="M63,363.19v11.19H61.8a1.37,1.37,0,0,1-1.3-.92l-1.66-5a2.87,2.87,0,0,0-5.45,0l-1.66,5a1.36,1.36,0,0,1-1.29.92H49.2V363.19a1.85,1.85,0,0,1,1.85-1.86H61.18A1.86,1.86,0,0,1,63,363.19Z"/><path id="star" class="cls-1" d="M61.09,382.72l1.12,3.45.87,2.68a.8.8,0,0,1-1.24.9l-4.51-3.27-.71-.52a.89.89,0,0,0-1,0l-.7.52-4.52,3.27a.8.8,0,0,1-1.24-.9l.87-2.68,1.13-3.45a.87.87,0,0,0-.32-1l-1.63-1.19L45.61,378a.8.8,0,0,1,.47-1.45h6.46a.85.85,0,0,0,.81-.6l2-6.13a.8.8,0,0,1,1.53,0l2,6.13a.85.85,0,0,0,.82.6h6.45a.8.8,0,0,1,.47,1.45L63,380.57l-1.64,1.19A.86.86,0,0,0,61.09,382.72Z"/></g><g id="music"><path id="Music_logo" data-name="Music logo" class="cls-3" d="M246.84,310.25a4,4,0,0,0,1.63,2.06,5,5,0,0,0,4.13.29,5.59,5.59,0,0,0,3.88-5.56q0-8-.05-15.94a.94.94,0,0,1,.76-.92l11.78-2.4a1,1,0,0,1,1.13.92l0,10.7a1.3,1.3,0,0,1-1.4,1.31,6.61,6.61,0,0,0-1,0,5.4,5.4,0,0,0-3.83,1.87,4.45,4.45,0,0,0-.91,4,4.32,4.32,0,0,0,2.59,2.59,5.08,5.08,0,0,0,4.31-.57,5,5,0,0,0,2.3-2.69,3.94,3.94,0,0,0,.15-1.48c-.15-1.76-.1-10.9.07-24.11a1.37,1.37,0,0,0-1.64-1.36l-15.46,3.17a1.38,1.38,0,0,0-1.1,1.34q0,9.62,0,19.24a1.3,1.3,0,0,1-1.24,1.3,9.55,9.55,0,0,0-1.49.18,6.08,6.08,0,0,0-3.17,1.39,4.92,4.92,0,0,0-1.53,2.73A3.84,3.84,0,0,0,246.84,310.25Z"/></g><g id="Quit"><path id="quit_door" data-name="quit door" class="cls-3" d="M176.16,362.06v29.47a2.62,2.62,0,0,1-2.66,2.58H159.22a.93.93,0,0,1-.95-.91v-3.05a.93.93,0,0,1,.95-.92h11.05a.74.74,0,0,0,.75-.72V365.08a.74.74,0,0,0-.75-.73H159.22a.93.93,0,0,1-.95-.91v-3.05a.93.93,0,0,1,.95-.91H173.5A2.62,2.62,0,0,1,176.16,362.06Z"/><path id="quit_arrow" data-name="quit arrow" class="cls-3" d="M150.26,372.64l10.54.78a3.38,3.38,0,0,1,3.28,3.06,3.34,3.34,0,0,1-2.7,3.44l-11.09,1,3,2.18a3.47,3.47,0,0,1,.33,4.82,3.77,3.77,0,0,1-5.06.53,29.28,29.28,0,0,1-5.41-4.08,28.5,28.5,0,0,1-4.88-6.16,3,3,0,0,1-.4-1.62,3,3,0,0,1,.66-1.72,34.27,34.27,0,0,1,4.25-5.17,35.61,35.61,0,0,1,5.68-4.61,4,4,0,0,1,4.72.18,3.56,3.56,0,0,1,1.13,3.69,3.26,3.26,0,0,1-.84,1.37Z"/></g><g id="Ads"><polygon class="cls-3" points="318.9 479.97 318.9 566.93 231.38 566.93 258.46 540.02 258.46 539.98 267.78 530.72 267.82 530.72 318.9 479.97"/></g><g id="Hexcape"><g id="Hexcape_symbol" data-name="Hexcape symbol"><path id="Red" class="cls-2" d="M268.8,121.92a13,13,0,0,1-22.47,8.83h0l11.9-21.55A13,13,0,0,1,268.8,121.92Z"/><path id="yellow-2" data-name="yellow" class="cls-4" d="M258.26,109.19l-11.9,21.55A13,13,0,0,1,255.87,109,13.45,13.45,0,0,1,258.26,109.19Z"/></g><g id="Hexcape_Text" data-name="Hexcape Text"><path id="H" class="cls-1" d="M59,112.45v42.12A3.44,3.44,0,0,1,55.51,158a3.45,3.45,0,0,1-3.44-3.43V137.15h-21v17.42A3.44,3.44,0,0,1,27.65,158a3.45,3.45,0,0,1-3.44-3.43V112.45a3.44,3.44,0,0,1,6.88,0v18.16h21V112.45a3.44,3.44,0,0,1,6.88,0Z"/><path id="E_white" data-name="E white" class="cls-1" d="M77.7,109H99.32a3.26,3.26,0,0,1,3.27,3.26h0a3.26,3.26,0,0,1-3.27,3.27H77.7a3.26,3.26,0,0,1-3.27-3.27h0A3.26,3.26,0,0,1,77.7,109Zm0,21.39H98.61a3.26,3.26,0,0,1,3.27,3.27h0A3.27,3.27,0,0,1,98.61,137H77.7a3.27,3.27,0,0,1-3.27-3.27h0A3.26,3.26,0,0,1,77.7,130.41Zm0,21.06H99.32a3.26,3.26,0,0,1,3.27,3.27h0A3.26,3.26,0,0,1,99.32,158H77.7a3.26,3.26,0,0,1-3.27-3.26h0A3.26,3.26,0,0,1,77.7,151.47Z"/><path id="E_black" data-name="E black" d="M275.91,109h21.62a3.26,3.26,0,0,1,3.27,3.26h0a3.26,3.26,0,0,1-3.27,3.27H275.91a3.27,3.27,0,0,1-3.27-3.27h0A3.27,3.27,0,0,1,275.91,109Zm0,21.39h20.92a3.27,3.27,0,0,1,3.27,3.27h0a3.28,3.28,0,0,1-3.27,3.27H275.91a3.28,3.28,0,0,1-3.27-3.27h0A3.27,3.27,0,0,1,275.91,130.41Zm0,21.06h21.62a3.26,3.26,0,0,1,3.27,3.27h0a3.26,3.26,0,0,1-3.27,3.26H275.91a3.27,3.27,0,0,1-3.27-3.26h0A3.27,3.27,0,0,1,275.91,151.47Z"/><path id="X" class="cls-1" d="M139,158h0a3.28,3.28,0,0,1-2.81-1.6L125.84,139l-10.19,17.4a3.26,3.26,0,0,1-2.82,1.62h0a3.27,3.27,0,0,1-2.8-5l12.2-20-11.74-19a3.27,3.27,0,1,1,5.6-3.38l9.73,16.4,9.62-16.39a3.26,3.26,0,0,1,2.82-1.61h0a3.27,3.27,0,0,1,2.79,5l-11.62,19,12.33,20A3.26,3.26,0,0,1,139,158Z"/><path id="C" class="cls-1" d="M156.64,156.25a15.32,15.32,0,0,1-6-6.4,20.82,20.82,0,0,1-2.12-9.6V126.8a20.88,20.88,0,0,1,2.12-9.6,15.49,15.49,0,0,1,6-6.42,17.36,17.36,0,0,1,9-2.27,16.88,16.88,0,0,1,7.76,1.8,16.41,16.41,0,0,1,5.92,5.11,17.28,17.28,0,0,1,1.62,2.72,3.43,3.43,0,0,1-3.06,4.93h-.06a3.31,3.31,0,0,1-3-1.83A11.11,11.11,0,0,0,173.3,119a10.56,10.56,0,0,0-3.52-2.78,10,10,0,0,0-9.45.47,9.76,9.76,0,0,0-3.51,4.06,14,14,0,0,0-1.24,6.08v13.45a14,14,0,0,0,1.24,6.06,9.26,9.26,0,0,0,8.77,5.49,10,10,0,0,0,4.2-.91,9.78,9.78,0,0,0,3.51-2.69,10,10,0,0,0,1.43-2.26,3.43,3.43,0,0,1,3.09-2h0a3.42,3.42,0,0,1,3.06,4.93,18.13,18.13,0,0,1-1.63,2.72,16.44,16.44,0,0,1-5.93,5.11,16.82,16.82,0,0,1-7.73,1.8A17.35,17.35,0,0,1,156.64,156.25Z"/><path id="A" class="cls-1" d="M206,109h1.05a3.46,3.46,0,0,1,3.25,2.25l15.53,42.09A3.45,3.45,0,0,1,222.6,158h0a3.45,3.45,0,0,1-3.27-2.33l-12.79-37.19-12.79,37.19a3.45,3.45,0,0,1-3.27,2.33h0a3.45,3.45,0,0,1-3.24-4.64l15.53-42.09A3.46,3.46,0,0,1,206,109Z"/><path id="P_lower" data-name="P lower" d="M235,151.3v3.27a3.43,3.43,0,0,0,1,2.42,3.44,3.44,0,0,0,5.87-2.42V138.85Z"/><path id="P_upper" data-name="P upper" class="cls-1" d="M241.85,112.45v26.4L235,151.3V112.45a3.44,3.44,0,0,1,6.88,0Z"/></g></g><g id="High_Score" data-name="High Score"><path id="Left_medium" data-name="Left medium" class="cls-1" d="M41.66,290.75H50A1.24,1.24,0,0,1,51.24,292v18.08A1.27,1.27,0,0,1,50,311.33H41.66a1.27,1.27,0,0,1-1.27-1.27V292A1.27,1.27,0,0,1,41.66,290.75Z"/><rect id="MIddle_large" data-name="MIddle large" class="cls-1" x="53.03" y="283.67" width="11.28" height="27.66" rx="1.23"/><rect id="Right_small" data-name="Right small" class="cls-1" x="66.29" y="297.5" width="10.61" height="13.83" rx="1.25"/></g><g id="Rate"><g id="Text"><path class="cls-1" d="M279.45,546.58a1,1,0,0,1-.85,1.42,1,1,0,0,1-.87-.53l-2.63-5.27a.44.44,0,0,1-.11-.2.59.59,0,0,1,0-.14v-.66a.55.55,0,0,1,.56-.55h.35a1.75,1.75,0,0,0,.94-.26,1.71,1.71,0,0,0,.63-.72,2.74,2.74,0,0,0,0-2.15,1.68,1.68,0,0,0-1.57-1H273.4a1,1,0,0,0-1,1V547a1,1,0,0,1-.74,1,.89.89,0,0,1-.84-.25.93.93,0,0,1-.28-.66V536.63a1.86,1.86,0,0,1,1.86-1.85h3.39a4.09,4.09,0,0,1,2,.47,3.35,3.35,0,0,1,1.35,1.34,4.08,4.08,0,0,1,.47,2,4,4,0,0,1-.48,2,3.35,3.35,0,0,1-1.35,1.34,3.85,3.85,0,0,1-.66.28Z"/><path class="cls-1" d="M291,548a.91.91,0,0,1-.54-.17.88.88,0,0,1-.34-.46l-3.45-10-3.44,10a.94.94,0,0,1-1.82-.3.91.91,0,0,1,.06-.32l4.14-11.22a1.12,1.12,0,0,1,1.06-.74,1.13,1.13,0,0,1,1.07.74l4.13,11.22A.93.93,0,0,1,291,548Z"/><path class="cls-1" d="M301.18,536.29a.88.88,0,0,1-.62.26H297.7v10.52a.93.93,0,1,1-1.85,0V536.55H293a.88.88,0,0,1-.88-.88.86.86,0,0,1,.26-.62.84.84,0,0,1,.62-.26h7.57a.88.88,0,0,1,.62,1.5Z"/><path class="cls-1" d="M312,547.74a.88.88,0,0,1-.62.26H305a.88.88,0,0,1-.62-1.51.91.91,0,0,1,.62-.25h6.37a.88.88,0,0,1,.62,1.5Z"/><path class="cls-1" d="M304.15,541.44a.88.88,0,0,1,.26-.63.91.91,0,0,1,.62-.25h6.18a.88.88,0,0,1,0,1.76H305A.88.88,0,0,1,304.15,541.44Z"/><path class="cls-1" d="M312,536.29a.88.88,0,0,1-.62.26H305a.88.88,0,0,1-.88-.88.86.86,0,0,1,.26-.62.84.84,0,0,1,.62-.26h6.37a.88.88,0,0,1,.62,1.5Z"/></g></g><g id="Sound"><path class="cls-3" d="M266.61,364.38v17.13a2.44,2.44,0,0,1-3.71,2.17l-7.36-4.76H252.3a3.9,3.9,0,0,1-3.82-4v-4a3.91,3.91,0,0,1,3.82-4h3.35l7.25-4.71A2.42,2.42,0,0,1,266.61,364.38Zm-10.18,5.14h-4.16a1.25,1.25,0,0,0-1.22,1.27v4.43a1.25,1.25,0,0,0,1.22,1.28h4.18l7.78,5V364.52Zm12,1a3.36,3.36,0,0,1,.91,1.24,2.35,2.35,0,0,1,.16.6,2.5,2.5,0,0,1,0,1.09,2.55,2.55,0,0,1-.43.92,3.06,3.06,0,0,1-.57.63.81.81,0,0,0-.32.54.93.93,0,0,0,.12.5,1.82,1.82,0,0,0,.42.52,1.66,1.66,0,0,0,.51.33,1.18,1.18,0,0,0,.58.1c.34,0,.56-.28.86-.63a5.28,5.28,0,0,0,.8-1.33,4.12,4.12,0,0,0,.32-.82,4.33,4.33,0,0,0,.15-.92,6.12,6.12,0,0,0-.05-1.08,5.24,5.24,0,0,0-.18-1,5,5,0,0,0-.59-1.2,4.37,4.37,0,0,0-.66-.87,1.22,1.22,0,0,0-.59-.42,1,1,0,0,0-.59,0,1.37,1.37,0,0,0-.48.33,2.58,2.58,0,0,0-.38.4,1,1,0,0,0-.23.42.76.76,0,0,0,.07.42A.63.63,0,0,0,268.39,370.5Zm2.85-3.06a4.45,4.45,0,0,0,.51.6,7.48,7.48,0,0,1,.5.72,8,8,0,0,1,.41.7c0,.06.17.34.32.72a8.56,8.56,0,0,1,.29.9c.08.34.12.6.16.86a8.54,8.54,0,0,1,.1.95,6.39,6.39,0,0,1-.12,1.17,6.87,6.87,0,0,1-.25,1.07,8.15,8.15,0,0,1-.48,1.06,9,9,0,0,1-.51.85,7.43,7.43,0,0,1-.82,1,.81.81,0,0,0-.27.35.94.94,0,0,0,.08.77,2.19,2.19,0,0,0,.46.54,1.63,1.63,0,0,0,.35.28.93.93,0,0,0,.5.08,1,1,0,0,0,.54-.18,2.24,2.24,0,0,0,.39-.38l.48-.56c.07-.09.12-.17.29-.42.29-.45.44-.67.52-.81a7.94,7.94,0,0,0,.48-1,8.46,8.46,0,0,0,.45-1.2,6.21,6.21,0,0,0,.19-1c.06-.42.08-.74.1-1.09a10.9,10.9,0,0,0,0-1.4,7.05,7.05,0,0,0-.6-2.58,10.11,10.11,0,0,0-.67-1.44c-.23-.4-.43-.68-.49-.78s-.32-.42-.66-.82-.44-.51-.58-.57a1.16,1.16,0,0,0-.65-.09,1.41,1.41,0,0,0-.5.22,2,2,0,0,0-.4.32.94.94,0,0,0-.25.37.92.92,0,0,0-.05.45A1,1,0,0,0,271.24,367.44Zm3.86-2.67a10.68,10.68,0,0,1,2.62,4.92,13,13,0,0,1,.33,4,12.6,12.6,0,0,1-1.17,4.54,11.29,11.29,0,0,1-2.38,3.24,1.05,1.05,0,0,0-.24.58,1.16,1.16,0,0,0,.22.72,1.42,1.42,0,0,0,.43.48,1.3,1.3,0,0,0,.65.23,1.18,1.18,0,0,0,.62-.15c.18-.17.42-.4.67-.68a12.44,12.44,0,0,0,1.13-1.43,13.69,13.69,0,0,0,1-1.73,16.5,16.5,0,0,0,1.24-3.64,14.79,14.79,0,0,0,.29-4.14,14.54,14.54,0,0,0-1.46-5.27,14.14,14.14,0,0,0-2.07-3.27,2.66,2.66,0,0,0-.6-.62,1.22,1.22,0,0,0-.48-.26,1.05,1.05,0,0,0-.69.13,1.47,1.47,0,0,0-.65.58,1.11,1.11,0,0,0-.19.6,1.34,1.34,0,0,0,.33.8A1.81,1.81,0,0,0,275.1,364.77Z"/></g><g id="play_button" data-name="play button"><path id="Right_circular_part" data-name="Right circular part" class="cls-3" d="M187.13,290.56A29.73,29.73,0,0,1,142,316l1.84-3.29a25.93,25.93,0,1,0,25.34-45.19l1.84-3.28A29.63,29.63,0,0,1,187.13,290.56Z"/><path id="Left_circular_part" data-name="Left circular part" class="cls-1" d="M171.05,264.2l-1.84,3.28a25.92,25.92,0,0,0-25.34,45.19L142,316a29.68,29.68,0,0,1,15.39-55.08A29.37,29.37,0,0,1,171.05,264.2Z"/><path id="Right_triangular_part" data-name="Right triangular part" class="cls-3" d="M173.81,294.28,153,306.17a5.54,5.54,0,0,1-5.5,0l2.26-4a2.33,2.33,0,0,0,2.53.12l18.88-10.8a2.38,2.38,0,0,0,0-4.12l-9.93-5.67,1.83-3.26,10.74,6.14A5.6,5.6,0,0,1,173.81,294.28Z"/><path id="Left_triangular_part" data-name="Left triangular part" class="cls-1" d="M163.07,278.43l-1.83,3.26-9-5.12a2.37,2.37,0,0,0-3.55,2.06v21.58a2.36,2.36,0,0,0,1,2l-2.26,4a5.55,5.55,0,0,1-2.88-4.88V277.53a5.6,5.6,0,0,1,8.38-4.86Z"/></g></svg>