<svg xmlns="http://www.w3.org/2000/svg" viewBox="0 0 318.95 566.95"><defs><style>.cls-1{fill:#fff;}.cls-2{fill:#ed1c24;}.cls-3{fill:#231f20;}.cls-4{fill:#fff408;}.cls-5,.cls-6{fill:none;stroke-miterlimit:10;}.cls-5{stroke:#fff;stroke-width:1.38px;}.cls-6{stroke:#ed1c24;stroke-linecap:round;stroke-width:2px;}</style></defs><g id="Background"><rect id="white_background" data-name="white background" class="cls-1" x="0.06" y="0.02" width="318.9" height="566.93"/><polygon id="Red" class="cls-2" points="193.24 566.93 318.9 429.12 318.9 479.97 231.37 566.93 193.24 566.93"/><path id="Black" class="cls-3" d="M231,158.5l4-7.21V112.44a3.44,3.44,0,0,1,6.87,0v26.4l4.48-8.1h0A12.95,12.95,0,0,1,255.81,109a13.45,13.45,0,0,1,2.39.22l14.42-26.09L318.53,0H0V566.92" transform="translate(0.03 0.01)"/><polygon id="Yellow" class="cls-4" points="158.27 566.93 193.24 566.93 318.75 429.28 318.55 378.46 158.27 566.93"/></g><g id="Lives"><path id="live" class="cls-5" d="M70.28,369.34a11.7,11.7,0,0,1-2,4.38,25.65,25.65,0,0,1-4.17,5A44.21,44.21,0,0,1,56,384.77a44.21,44.21,0,0,1-8.11-6.09,25.22,25.22,0,0,1-4.16-5,11.71,11.71,0,0,1-2-4.38,9.07,9.07,0,0,1,.37-5,7,7,0,0,1,2-3.07,7.12,7.12,0,0,1,3.51-1.53,8.47,8.47,0,0,1,3.66.15,6.35,6.35,0,0,1,2.7,1.24,6.06,6.06,0,0,1,2,3.06,6.16,6.16,0,0,1,2-3.06,6.3,6.3,0,0,1,2.7-1.24,8.42,8.42,0,0,1,3.65-.15,7.08,7.08,0,0,1,3.51,1.53,7,7,0,0,1,2,3.07A9,9,0,0,1,70.28,369.34Z" transform="translate(0.03 0.01)"/></g><g id="music"><path id="Music_logo" data-name="Music logo" class="cls-3" d="M249.84,310.25a4,4,0,0,0,1.63,2.06,5,5,0,0,0,4.13.29,5.59,5.59,0,0,0,3.88-5.56q0-8-.05-15.94a.94.94,0,0,1,.76-.92l11.78-2.4a1,1,0,0,1,1.13.92l0,10.7a1.3,1.3,0,0,1-1.4,1.31,6.61,6.61,0,0,0-1,0,5.4,5.4,0,0,0-3.83,1.87,4.45,4.45,0,0,0-.91,4,4.32,4.32,0,0,0,2.59,2.59,5.08,5.08,0,0,0,4.31-.57,5,5,0,0,0,2.3-2.69,3.94,3.94,0,0,0,.15-1.48c-.15-1.76-.1-10.9.07-24.11a1.37,1.37,0,0,0-1.64-1.36l-15.46,3.17a1.38,1.38,0,0,0-1.1,1.34q0,9.62,0,19.24a1.3,1.3,0,0,1-1.24,1.3,9.55,9.55,0,0,0-1.49.18,6.08,6.08,0,0,0-3.17,1.39,4.92,4.92,0,0,0-1.53,2.73A3.84,3.84,0,0,0,249.84,310.25Z" transform="translate(0.03 0.01)"/><path id="Music_stroke_red" data-name="Music stroke red" class="cls-2" d="M255.34,272.11h-3.91a1.2,1.2,0,0,0-1.05,1.78l24.17,43.65a1.68,1.68,0,0,0,1.48.88h3.83a1.14,1.14,0,0,0,1-1.69l-24-43.74A1.71,1.71,0,0,0,255.34,272.11Z" transform="translate(0.03 0.01)"/></g><g id="quit"><path id="quit_door" data-name="quit door" class="cls-3" d="M176.16,362.06v29.47a2.62,2.62,0,0,1-2.66,2.58H159.22a.93.93,0,0,1-.95-.91v-3.05a.93.93,0,0,1,.95-.92h11.05a.74.74,0,0,0,.75-.72V365.08a.74.74,0,0,0-.75-.73H159.22a.93.93,0,0,1-.95-.91v-3.05a.93.93,0,0,1,.95-.91H173.5A2.62,2.62,0,0,1,176.16,362.06Z" transform="translate(0.03 0.01)"/><path id="quit_arrow" data-name="quit arrow" class="cls-3" d="M150.26,372.64l10.54.78a3.38,3.38,0,0,1,3.28,3.06,3.34,3.34,0,0,1-2.7,3.44l-11.09,1,3,2.18a3.47,3.47,0,0,1,.33,4.82,3.77,3.77,0,0,1-5.06.53,29.28,29.28,0,0,1-5.41-4.08,28.5,28.5,0,0,1-4.88-6.16,3,3,0,0,1-.4-1.62,3,3,0,0,1,.66-1.72,34.27,34.27,0,0,1,4.25-5.17,35.61,35.61,0,0,1,5.68-4.61,4,4,0,0,1,4.72.18,3.56,3.56,0,0,1,1.13,3.69,3.26,3.26,0,0,1-.84,1.37Z" transform="translate(0.03 0.01)"/></g><g id="ads"><path id="Ads_logo" data-name="Ads logo" class="cls-3" d="M318.9,480v87H231.37M300,555V535.3a4.58,4.58,0,0,0-4.58-4.58H258.46a4.58,4.58,0,0,0-4.58,4.58V555a4.58,4.58,0,0,0,4.58,4.58h36.92A4.58,4.58,0,0,0,300,555Zm-34.14-15-3.64,9.86A.82.82,0,0,0,263,551h0a.82.82,0,0,0,.77-.56l3-8.82,3,8.82a.84.84,0,0,0,.78.56h0a.83.83,0,0,0,.77-1.11L267.69,540a1,1,0,0,0-.93-.66h0A1,1,0,0,0,265.82,540Zm15.8,3.51v3.29a4.69,4.69,0,0,1-.52,2.26,3.48,3.48,0,0,1-1.52,1.42,5.46,5.46,0,0,1-2.4.49h-2.95a.73.73,0,0,1-.73-.73V540.06a.73.73,0,0,1,.73-.73h3a5.49,5.49,0,0,1,2.4.49,3.46,3.46,0,0,1,1.51,1.42A4.69,4.69,0,0,1,281.62,543.5Zm-1.68-.07a2.47,2.47,0,0,0-.7-1.88,2.84,2.84,0,0,0-2-.67h-2.1v8.52h2.1a2.84,2.84,0,0,0,2-.66,2.48,2.48,0,0,0,.7-1.88Zm7.5,7.65a6,6,0,0,0,2.3-.4,3.09,3.09,0,0,0,1.46-1.15,3.17,3.17,0,0,0,.51-1.82v0a3,3,0,0,0-.48-1.8,2.65,2.65,0,0,0-1.18-.95,9.76,9.76,0,0,0-1.77-.52h-.08l-.09,0H288a12.3,12.3,0,0,1-1.41-.34,2,2,0,0,1-.85-.51,1.26,1.26,0,0,1-.34-.94h0a1.57,1.57,0,0,1,.66-1.35,3.16,3.16,0,0,1,1.85-.47,3.84,3.84,0,0,1,1.32.24,4.78,4.78,0,0,1,.73.34.8.8,0,0,0,1-.22h0a.79.79,0,0,0-.26-1.15,4,4,0,0,0-.41-.21,6,6,0,0,0-1.19-.4,5.59,5.59,0,0,0-1.23-.14,5.73,5.73,0,0,0-2.23.4,3.12,3.12,0,0,0-1.42,1.17,3.36,3.36,0,0,0-.48,1.84h0a3,3,0,0,0,.52,1.89,2.59,2.59,0,0,0,1.25.92,13,13,0,0,0,1.9.46l.12,0h.11a8.78,8.78,0,0,1,1.29.31,1.94,1.94,0,0,1,.82.53,1.4,1.4,0,0,1,.31,1h0a1.5,1.5,0,0,1-.69,1.32,3.53,3.53,0,0,1-2,.47,5.12,5.12,0,0,1-1.74-.29,4.49,4.49,0,0,1-.91-.44.78.78,0,0,0-1,.16l0,0a.8.8,0,0,0,.18,1.16c.17.1.34.2.52.29a6.24,6.24,0,0,0,1.4.48A8.19,8.19,0,0,0,287.44,551.08Z" transform="translate(0.03 0.01)"/></g><g id="hexcape"><g id="Hexcape_symbol" data-name="Hexcape symbol"><path id="Red-2" data-name="Red" class="cls-2" d="M268.8,121.92a13,13,0,0,1-22.47,8.83h0l11.9-21.55A13,13,0,0,1,268.8,121.92Z" transform="translate(0.03 0.01)"/><path id="yellow-2" data-name="yellow" class="cls-4" d="M258.26,109.19l-11.9,21.55A13,13,0,0,1,255.87,109,13.45,13.45,0,0,1,258.26,109.19Z" transform="translate(0.03 0.01)"/></g><g id="Hexcape_Text" data-name="Hexcape Text"><path id="H" class="cls-1" d="M59,112.45v42.12A3.44,3.44,0,0,1,55.51,158a3.45,3.45,0,0,1-3.44-3.43V137.15h-21v17.42A3.44,3.44,0,0,1,27.65,158a3.45,3.45,0,0,1-3.44-3.43V112.45a3.44,3.44,0,0,1,6.88,0v18.16h21V112.45a3.44,3.44,0,0,1,6.88,0Z" transform="translate(0.03 0.01)"/><path id="E_white" data-name="E white" class="cls-1" d="M77.7,109H99.32a3.26,3.26,0,0,1,3.27,3.26h0a3.26,3.26,0,0,1-3.27,3.27H77.7a3.26,3.26,0,0,1-3.27-3.27h0A3.26,3.26,0,0,1,77.7,109Zm0,21.39H98.61a3.26,3.26,0,0,1,3.27,3.27h0A3.27,3.27,0,0,1,98.61,137H77.7a3.27,3.27,0,0,1-3.27-3.27h0A3.26,3.26,0,0,1,77.7,130.41Zm0,21.06H99.32a3.26,3.26,0,0,1,3.27,3.27h0A3.26,3.26,0,0,1,99.32,158H77.7a3.26,3.26,0,0,1-3.27-3.26h0A3.26,3.26,0,0,1,77.7,151.47Z" transform="translate(0.03 0.01)"/><path id="E_black" data-name="E black" d="M275.91,109h21.62a3.26,3.26,0,0,1,3.27,3.26h0a3.26,3.26,0,0,1-3.27,3.27H275.91a3.27,3.27,0,0,1-3.27-3.27h0A3.27,3.27,0,0,1,275.91,109Zm0,21.39h20.92a3.27,3.27,0,0,1,3.27,3.27h0a3.28,3.28,0,0,1-3.27,3.27H275.91a3.28,3.28,0,0,1-3.27-3.27h0A3.27,3.27,0,0,1,275.91,130.41Zm0,21.06h21.62a3.26,3.26,0,0,1,3.27,3.27h0a3.26,3.26,0,0,1-3.27,3.26H275.91a3.27,3.27,0,0,1-3.27-3.26h0A3.27,3.27,0,0,1,275.91,151.47Z" transform="translate(0.03 0.01)"/><path id="X" class="cls-1" d="M139,158h0a3.28,3.28,0,0,1-2.81-1.6L125.84,139l-10.19,17.4a3.26,3.26,0,0,1-2.82,1.62h0a3.27,3.27,0,0,1-2.8-5l12.2-20-11.74-19a3.27,3.27,0,1,1,5.6-3.38l9.73,16.4,9.62-16.39a3.26,3.26,0,0,1,2.82-1.61h0a3.27,3.27,0,0,1,2.79,5l-11.62,19,12.33,20A3.26,3.26,0,0,1,139,158Z" transform="translate(0.03 0.01)"/><path id="C" class="cls-1" d="M156.64,156.25a15.32,15.32,0,0,1-6-6.4,20.82,20.82,0,0,1-2.12-9.6V126.8a20.88,20.88,0,0,1,2.12-9.6,15.49,15.49,0,0,1,6-6.42,17.36,17.36,0,0,1,9-2.27,16.88,16.88,0,0,1,7.76,1.8,16.41,16.41,0,0,1,5.92,5.11,17.28,17.28,0,0,1,1.62,2.72,3.43,3.43,0,0,1-3.06,4.93h-.06a3.31,3.31,0,0,1-3-1.83A11.11,11.11,0,0,0,173.3,119a10.56,10.56,0,0,0-3.52-2.78,10,10,0,0,0-9.45.47,9.76,9.76,0,0,0-3.51,4.06,14,14,0,0,0-1.24,6.08v13.45a14,14,0,0,0,1.24,6.06,9.26,9.26,0,0,0,8.77,5.49,10,10,0,0,0,4.2-.91,9.78,9.78,0,0,0,3.51-2.69,10,10,0,0,0,1.43-2.26,3.43,3.43,0,0,1,3.09-2h0a3.42,3.42,0,0,1,3.06,4.93,18.13,18.13,0,0,1-1.63,2.72,16.44,16.44,0,0,1-5.93,5.11,16.82,16.82,0,0,1-7.73,1.8A17.35,17.35,0,0,1,156.64,156.25Z" transform="translate(0.03 0.01)"/><path id="A" class="cls-1" d="M206,109h1.05a3.46,3.46,0,0,1,3.25,2.25l15.53,42.09A3.45,3.45,0,0,1,222.6,158h0a3.45,3.45,0,0,1-3.27-2.33l-12.79-37.19-12.79,37.19a3.45,3.45,0,0,1-3.27,2.33h0a3.45,3.45,0,0,1-3.24-4.64l15.53-42.09A3.46,3.46,0,0,1,206,109Z" transform="translate(0.03 0.01)"/><path id="P_lower" data-name="P lower" d="M235,151.3v3.27a3.43,3.43,0,0,0,1,2.42,3.44,3.44,0,0,0,5.87-2.42V138.85Z" transform="translate(0.03 0.01)"/><path id="P_upper" data-name="P upper" class="cls-1" d="M241.85,112.45v26.4L235,151.3V112.45a3.44,3.44,0,0,1,6.88,0Z" transform="translate(0.03 0.01)"/></g></g><g id="high_score" data-name="high score"><path id="Left_medium" data-name="Left medium" class="cls-1" d="M41.69,290.76H50A1.24,1.24,0,0,1,51.27,292v18.08A1.27,1.27,0,0,1,50,311.34H41.69a1.27,1.27,0,0,1-1.27-1.27V292A1.27,1.27,0,0,1,41.69,290.76Z"/><rect id="MIddle_large" data-name="MIddle large" class="cls-1" x="53.06" y="283.68" width="11.28" height="27.66" rx="1.23"/><rect id="Right_small" data-name="Right small" class="cls-1" x="66.32" y="297.51" width="10.61" height="13.83" rx="1.25"/></g><g id="rate"><path id="Full_rate" data-name="Full rate" class="cls-3" d="M179.41,432.56H137.68c-2.86,0-5.19,1.66-5.19,3.71v16c0,2.05,2.33,3.71,5.19,3.71h41.73c2.86,0,5.18-1.66,5.18-3.71v-16C184.59,434.22,182.27,432.56,179.41,432.56Zm-32.3,17a.93.93,0,1,1-1.66.86l-2.55-5.09a.44.44,0,0,1-.1-.19.68.68,0,0,1,0-.14v-.64a.54.54,0,0,1,.54-.53h.34a1.59,1.59,0,0,0,1.52-.94,2.44,2.44,0,0,0,.21-1,2.41,2.41,0,0,0-.21-1,1.67,1.67,0,0,0-.61-.7,1.61,1.61,0,0,0-.91-.25h-2.4a1,1,0,0,0-.95,1V450a.93.93,0,0,1-.71.92.92.92,0,0,1-.82-.25.88.88,0,0,1-.26-.63V439.93a1.79,1.79,0,0,1,1.79-1.79h3.28a4,4,0,0,1,1.95.46,3.17,3.17,0,0,1,1.3,1.29,4.3,4.3,0,0,1,0,3.87,3.28,3.28,0,0,1-1.31,1.3,3.61,3.61,0,0,1-.64.27Zm11.13,1.38a1,1,0,0,1-.52-.17.91.91,0,0,1-.33-.44l-3.33-9.7-3.33,9.7A.9.9,0,0,1,149,450a.81.81,0,0,1,.06-.31l4-10.85a1.1,1.1,0,0,1,2.06,0l4,10.85A.91.91,0,0,1,158.24,450.92Zm9.89-11.32a.88.88,0,0,1-.6.25h-2.76V450a.91.91,0,0,1-.9.9.92.92,0,0,1-.9-.9V439.85h-2.76a.85.85,0,0,1-.85-.85.86.86,0,0,1,.25-.6.82.82,0,0,1,.6-.25h7.32a.85.85,0,0,1,.85.85A.86.86,0,0,1,168.13,439.6Zm10.49,11.07a.88.88,0,0,1-.6.25h-6.16a.86.86,0,0,1-.61-1.46.89.89,0,0,1,.61-.25H178a.85.85,0,0,1,.85.85A.89.89,0,0,1,178.62,450.67Zm-7.62-6.1a.85.85,0,0,1,.86-.85h6a.86.86,0,0,1,.85.85.85.85,0,0,1-.25.61.86.86,0,0,1-.6.25h-6A.86.86,0,0,1,171,444.57Zm7.62-5a.88.88,0,0,1-.6.25h-6.16a.85.85,0,0,1-.61-1.45.85.85,0,0,1,.61-.25H178a.85.85,0,0,1,.85.85A.86.86,0,0,1,178.62,439.6Z" transform="translate(0.03 0.01)"/></g><g id="sound"><path id="Speaker" class="cls-3" d="M267.61,361.38v17.13a2.44,2.44,0,0,1-3.71,2.17l-7.36-4.76H253.3a3.9,3.9,0,0,1-3.82-4v-4a3.91,3.91,0,0,1,3.82-4h3.35l7.25-4.71A2.42,2.42,0,0,1,267.61,361.38Zm-10.18,5.14h-4.16a1.25,1.25,0,0,0-1.22,1.27v4.43a1.25,1.25,0,0,0,1.22,1.28h4.18l7.78,5V361.52Z" transform="translate(0.03 0.01)"/><line id="_135_line" data-name="135 line" class="cls-6" x1="280.58" y1="374.63" x2="271.82" y2="365.87"/><line id="_45_line" data-name="45 line" class="cls-6" x1="280.58" y1="365.87" x2="271.82" y2="374.63"/></g><g id="play_button" data-name="play button"><path id="Right_circular_part" data-name="Right circular part" class="cls-3" d="M187.13,290.56A29.73,29.73,0,0,1,142,316l1.84-3.29a25.93,25.93,0,1,0,25.34-45.19l1.84-3.28A29.63,29.63,0,0,1,187.13,290.56Z" transform="translate(0.03 0.01)"/><path id="Left_circular_part" data-name="Left circular part" class="cls-1" d="M171.05,264.2l-1.84,3.28a25.92,25.92,0,0,0-25.34,45.19L142,316a29.68,29.68,0,0,1,15.39-55.08A29.37,29.37,0,0,1,171.05,264.2Z" transform="translate(0.03 0.01)"/><path id="Right_triangular_part" data-name="Right triangular part" class="cls-3" d="M173.81,294.28,153,306.17a5.54,5.54,0,0,1-5.5,0l2.26-4a2.33,2.33,0,0,0,2.53.12l18.88-10.8a2.38,2.38,0,0,0,0-4.12l-9.93-5.67,1.83-3.26,10.74,6.14A5.6,5.6,0,0,1,173.81,294.28Z" transform="translate(0.03 0.01)"/><path id="Left_triangular_part" data-name="Left triangular part" class="cls-1" d="M163.07,278.43l-1.83,3.26-9-5.12a2.37,2.37,0,0,0-3.55,2.06v21.58a2.36,2.36,0,0,0,1,2l-2.26,4a5.55,5.55,0,0,1-2.88-4.88V277.53a5.6,5.6,0,0,1,8.38-4.86Z" transform="translate(0.03 0.01)"/></g></svg>