<svg xmlns="http://www.w3.org/2000/svg" viewBox="0 0 122.85 109.79"><defs><style>.cls-1{fill:red;}</style></defs><g id="Layer_2" data-name="Layer 2"><g id="Layer_1-2" data-name="Layer 1"><g id="Heart"><path class="cls-1" d="M85.39,11a28.66,28.66,0,0,1,5.13.45,24.83,24.83,0,0,1,12.24,5.37,24.6,24.6,0,0,1,7.15,10.71,31.62,31.62,0,0,1,1.28,17.35c-1.17,6.19-3.71,10.3-6.89,15.31A89.61,89.61,0,0,1,89.75,77.53,155.54,155.54,0,0,1,61.43,98.8,155.31,155.31,0,0,1,33.1,77.53,89.89,89.89,0,0,1,18.56,60.18c-3.19-5-5.72-9.12-6.89-15.31A31.62,31.62,0,0,1,13,27.52a24.56,24.56,0,0,1,7.14-10.71,25,25,0,0,1,12.25-5.37A28.76,28.76,0,0,1,37.47,11a30.59,30.59,0,0,1,7.63,1,22.64,22.64,0,0,1,9.44,4.34A21.35,21.35,0,0,1,61.43,27,21.42,21.42,0,0,1,68.32,16.3,22.64,22.64,0,0,1,77.76,12a30.53,30.53,0,0,1,7.63-1m0-11h0A41.22,41.22,0,0,0,75,1.32,33.16,33.16,0,0,0,61.43,7.73,33.1,33.1,0,0,0,47.81,1.31,41,41,0,0,0,37.47,0,40.24,40.24,0,0,0,30.4.62,35.78,35.78,0,0,0,13,8.42,35.46,35.46,0,0,0,2.67,23.62,42.33,42.33,0,0,0,.86,46.89C2.46,55.33,6.08,61,9.28,66.08a99.9,99.9,0,0,0,16.23,19.4,168,168,0,0,0,30.37,22.81,11,11,0,0,0,11.09,0A167.21,167.21,0,0,0,97.34,85.48a100.63,100.63,0,0,0,16.25-19.41c3.19-5,6.81-10.76,8.4-19.16a42.26,42.26,0,0,0-1.8-23.29A35.56,35.56,0,0,0,109.86,8.41,35.62,35.62,0,0,0,92.5.63,40.08,40.08,0,0,0,85.39,0Z"/></g></g></g></svg>