<svg xmlns="http://www.w3.org/2000/svg" viewBox="0 0 61.78 25.93"><defs><style>.cls-1{fill:none;stroke:#231f20;stroke-miterlimit:10;stroke-width:1.62px;}.cls-2{fill:#231f20;}</style></defs><g id="Layer_2" data-name="Layer 2"><g id="Layer_1-2" data-name="Layer 1"><rect id="Border" class="cls-1" x="0.81" y="0.81" width="60.16" height="24.31" rx="4.11"/><g id="Typo"><path id="P" class="cls-2" d="M53.57,8.06a3.65,3.65,0,0,0-1.52-1.47,4.72,4.72,0,0,0-2.29-.54h-4a1.52,1.52,0,0,0-1.52,1.52v11a1.3,1.3,0,0,0,1.3,1.3h0a1.3,1.3,0,0,0,1.3-1.3V14.52h2.94A4.84,4.84,0,0,0,52.05,14a3.56,3.56,0,0,0,1.52-1.48,4.42,4.42,0,0,0,.54-2.22A4.54,4.54,0,0,0,53.57,8.06ZM51.2,11.2a1.45,1.45,0,0,1-.55.6,1.55,1.55,0,0,1-.83.21h-3V8.57h3a1.58,1.58,0,0,1,.85.21,1.49,1.49,0,0,1,.55.61,2,2,0,0,1,.19.9A1.8,1.8,0,0,1,51.2,11.2Z"/><path id="I" class="cls-2" d="M38.07,19.88h0a1.34,1.34,0,0,1-1.35-1.35V7.4a1.35,1.35,0,0,1,1.35-1.35h0A1.36,1.36,0,0,1,39.42,7.4V18.53A1.35,1.35,0,0,1,38.07,19.88Z"/><path id="K" class="cls-2" d="M33.25,19.88h-3.1l-3.29-5.75-2,2.76v2.28a.71.71,0,0,1-.71.71H23a.71.71,0,0,1-.71-.71V6.76A.71.71,0,0,1,23,6.05h1.18a.71.71,0,0,1,.71.71V12.9l4.51-6.85h3.28l-4.11,5.73Z"/><path id="S" class="cls-2" d="M10.94,19.82a7.9,7.9,0,0,1-1.78-.58,7,7,0,0,1-1.49-.93l1.21-2.15a5.67,5.67,0,0,0,1.84,1,6.6,6.6,0,0,0,2.15.36,3.78,3.78,0,0,0,2-.43,1.36,1.36,0,0,0,.7-1.22h0a1.21,1.21,0,0,0-.31-.88,1.89,1.89,0,0,0-.82-.47,9.61,9.61,0,0,0-1.29-.28H13l-.21,0a12.44,12.44,0,0,1-2.3-.54A3.48,3.48,0,0,1,9,12.5a3.79,3.79,0,0,1-.63-2.34h0a4.2,4.2,0,0,1,.6-2.29,3.69,3.69,0,0,1,1.74-1.45,6.89,6.89,0,0,1,2.75-.5,7.3,7.3,0,0,1,1.52.17,8.45,8.45,0,0,1,1.52.5,7.69,7.69,0,0,1,1.4.78l-1.1,2.2a6.75,6.75,0,0,0-1.67-.85,4.86,4.86,0,0,0-1.67-.31,3.53,3.53,0,0,0-1.85.4,1.22,1.22,0,0,0-.66,1.1h0a1.29,1.29,0,0,0,.35.95,2,2,0,0,0,.84.51,13.13,13.13,0,0,0,1.42.34l.07,0h.08l.11,0,.11,0a11.74,11.74,0,0,1,2.19.62,3.36,3.36,0,0,1,1.47,1.18,3.73,3.73,0,0,1,.59,2.22v0a4,4,0,0,1-.62,2.26,3.84,3.84,0,0,1-1.8,1.44,7.38,7.38,0,0,1-2.85.49A8.84,8.84,0,0,1,10.94,19.82Z"/></g></g></g></svg>