<svg xmlns="http://www.w3.org/2000/svg" viewBox="0 0 318.9 566.93"><defs><style>.cls-1{fill:#fff;opacity:0.66;}.cls-2,.cls-5{fill:none;stroke-miterlimit:10;}.cls-2{stroke:#231f20;stroke-width:1.62px;}.cls-3{fill:#231f20;}.cls-4{fill:red;}.cls-5{stroke:#000;}</style></defs><g id="Layer_2" data-name="Layer 2"><g id="Layer_1-2" data-name="Layer 1"><rect class="cls-1" width="318.9" height="566.93"/><g id="Typo"><path id="E" d="M257.25,163.69a1.55,1.55,0,0,1-1.55,1.55H243.86a1.55,1.55,0,0,1-1.55-1.55V143.51a1.54,1.54,0,0,1,1.55-1.55H255.7a1.55,1.55,0,1,1,0,3.1H245.57v7.06h8.37a1.56,1.56,0,1,1,0,3.11h-8.37v6.9H255.7A1.55,1.55,0,0,1,257.25,163.69Z"/><path id="U" d="M218,164.46a6.72,6.72,0,0,1-2.79-3,10.5,10.5,0,0,1-1-4.68V143.51a1.55,1.55,0,0,1,1.55-1.55H216a1.55,1.55,0,0,1,1.55,1.55v13.42a5.64,5.64,0,0,0,1.28,3.94,5.43,5.43,0,0,0,7.26,0,5.6,5.6,0,0,0,1.29-3.94V143.51a1.56,1.56,0,0,1,1.55-1.55h.16a1.56,1.56,0,0,1,1.56,1.55v13.31a10.5,10.5,0,0,1-1,4.68,6.74,6.74,0,0,1-2.8,3,9,9,0,0,1-4.44,1A8.93,8.93,0,0,1,218,164.46Z"/><path id="N" d="M186.63,142h.55a1.54,1.54,0,0,1,1.31.72L199.42,160l-.39.42V143.51a1.56,1.56,0,0,1,1.56-1.55h.13a1.56,1.56,0,0,1,1.55,1.55v20.16a1.56,1.56,0,0,1-1.55,1.55h-.6a1.54,1.54,0,0,1-1.3-.72l-10.89-17,.38-.42v16.59a1.56,1.56,0,0,1-1.55,1.55h-.13a1.55,1.55,0,0,1-1.55-1.55V143.51A1.55,1.55,0,0,1,186.63,142Z"/><path id="I" d="M171.21,165.24h-.16a1.56,1.56,0,0,1-1.56-1.56V143.51a1.56,1.56,0,0,1,1.56-1.55h.16a1.56,1.56,0,0,1,1.55,1.55v20.17A1.56,1.56,0,0,1,171.21,165.24Z"/><path id="T" d="M159.74,143.51a1.55,1.55,0,0,1-1.55,1.55H153.1a1.08,1.08,0,0,1,.05.36v18.27a1.55,1.55,0,0,1-1.55,1.55h-.16a1.55,1.55,0,0,1-1.55-1.55V145.42a1.09,1.09,0,0,1,.06-.36h-5.09a1.55,1.55,0,1,1,0-3.1h13.33A1.55,1.55,0,0,1,159.74,143.51Z"/><path id="N-2" data-name="N" d="M117.77,142.08h.55a1.55,1.55,0,0,1,1.31.73l10.93,17.26-.39.42V143.64a1.56,1.56,0,0,1,1.56-1.56h.12a1.56,1.56,0,0,1,1.56,1.56v20.15a1.55,1.55,0,0,1-1.56,1.55h-.59a1.54,1.54,0,0,1-1.3-.71l-10.9-17,.39-.42v16.59a1.55,1.55,0,0,1-1.55,1.55h-.13a1.55,1.55,0,0,1-1.56-1.55V143.64A1.56,1.56,0,0,1,117.77,142.08Z"/><path id="O" d="M91.73,164.41a7.25,7.25,0,0,1-2.87-3,9.54,9.54,0,0,1-1-4.5v-6.6a9.58,9.58,0,0,1,1-4.51,7.22,7.22,0,0,1,2.87-3,9.14,9.14,0,0,1,8.58,0,7.25,7.25,0,0,1,2.88,3,9.7,9.7,0,0,1,1,4.51v6.6a9.66,9.66,0,0,1-1,4.5,7.27,7.27,0,0,1-2.88,3,9.14,9.14,0,0,1-8.58,0Zm6.83-2.8a4.39,4.39,0,0,0,1.7-1.84,6.09,6.09,0,0,0,.6-2.76v-6.82a6,6,0,0,0-.6-2.76,4.33,4.33,0,0,0-1.7-1.84,5.27,5.27,0,0,0-5.07,0,4.27,4.27,0,0,0-1.7,1.84,6,6,0,0,0-.6,2.76V157a6.09,6.09,0,0,0,.6,2.76,4.33,4.33,0,0,0,1.7,1.84,5.27,5.27,0,0,0,5.07,0Z"/><path id="C" d="M65.49,164.4a7.32,7.32,0,0,1-2.84-3,9.88,9.88,0,0,1-1-4.56v-6.39a9.88,9.88,0,0,1,1-4.56,7.41,7.41,0,0,1,2.84-3,8.25,8.25,0,0,1,4.26-1.08,8,8,0,0,1,3.68.86A7.87,7.87,0,0,1,76.24,145a8.62,8.62,0,0,1,.85,1.48,1.55,1.55,0,0,1-1.44,2.16h-.17a1.59,1.59,0,0,1-1.41-.91,5.13,5.13,0,0,0-2.34-2.36,4.49,4.49,0,0,0-2-.46,4.59,4.59,0,0,0-2.5.68,4.63,4.63,0,0,0-1.67,1.93,6.72,6.72,0,0,0-.59,2.89v6.39a6.7,6.7,0,0,0,.59,2.88,4.52,4.52,0,0,0,1.67,1.93,4.59,4.59,0,0,0,2.5.68,4.69,4.69,0,0,0,3.65-1.71,5.08,5.08,0,0,0,.69-1.08,1.57,1.57,0,0,1,1.41-.94h.15a1.56,1.56,0,0,1,1.41,2.21,8,8,0,0,1-.83,1.42,7.83,7.83,0,0,1-2.82,2.43,8,8,0,0,1-3.66.86A8.25,8.25,0,0,1,65.49,164.4Z"/></g><rect id="Border" class="cls-2" x="129.37" y="428.65" width="60.16" height="24.31" rx="4.11"/><g id="Typo-2" data-name="Typo"><path id="P" class="cls-3" d="M182.13,435.9a3.68,3.68,0,0,0-1.52-1.48,4.84,4.84,0,0,0-2.29-.53h-4a1.52,1.52,0,0,0-1.52,1.51v11a1.3,1.3,0,0,0,1.3,1.3h0a1.3,1.3,0,0,0,1.3-1.3v-4.06h2.94a4.72,4.72,0,0,0,2.29-.54,3.54,3.54,0,0,0,1.52-1.47,4.46,4.46,0,0,0,.54-2.23A4.53,4.53,0,0,0,182.13,435.9ZM179.76,439a1.39,1.39,0,0,1-.55.6,1.47,1.47,0,0,1-.83.21h-3V436.4h3a1.67,1.67,0,0,1,.85.21,1.52,1.52,0,0,1,.55.62,1.94,1.94,0,0,1,.19.89A1.8,1.8,0,0,1,179.76,439Z"/><path id="I-2" data-name="I" class="cls-3" d="M166.63,447.72h0a1.35,1.35,0,0,1-1.35-1.35V435.24a1.34,1.34,0,0,1,1.35-1.35h0a1.35,1.35,0,0,1,1.35,1.35v11.13A1.36,1.36,0,0,1,166.63,447.72Z"/><path id="K" class="cls-3" d="M161.81,447.72h-3.1L155.42,442l-2,2.76V447a.71.71,0,0,1-.71.72h-1.18a.71.71,0,0,1-.71-.72V434.6a.71.71,0,0,1,.71-.71h1.18a.71.71,0,0,1,.71.71v6.14l4.51-6.85h3.28l-4.11,5.73Z"/><path id="S" class="cls-3" d="M139.5,447.66a8.44,8.44,0,0,1-1.78-.58,7,7,0,0,1-1.49-.93l1.21-2.15a5.87,5.87,0,0,0,1.84,1,6.6,6.6,0,0,0,2.15.36,3.88,3.88,0,0,0,2-.43,1.37,1.37,0,0,0,.7-1.23h0a1.19,1.19,0,0,0-.31-.87,1.81,1.81,0,0,0-.82-.48,9.8,9.8,0,0,0-1.29-.27h-.11l-.21,0a13.22,13.22,0,0,1-2.3-.55,3.4,3.4,0,0,1-1.55-1.15,3.76,3.76,0,0,1-.63-2.33h0a4.18,4.18,0,0,1,.6-2.29,3.64,3.64,0,0,1,1.74-1.45,7.46,7.46,0,0,1,4.27-.33,8.41,8.41,0,0,1,1.52.49,9.1,9.1,0,0,1,1.4.78l-1.1,2.21a7.15,7.15,0,0,0-1.67-.86,5.09,5.09,0,0,0-1.67-.3,3.64,3.64,0,0,0-1.85.39,1.25,1.25,0,0,0-.66,1.11h0a1.29,1.29,0,0,0,.35.95,2,2,0,0,0,.84.51c.34.1.81.22,1.42.34h.07l.08,0,.11,0,.11,0a11.91,11.91,0,0,1,2.19.63,3.3,3.3,0,0,1,1.47,1.18,3.73,3.73,0,0,1,.59,2.22v0a4,4,0,0,1-.62,2.26,3.84,3.84,0,0,1-1.8,1.44,7.58,7.58,0,0,1-2.85.49A9.5,9.5,0,0,1,139.5,447.66Z"/></g><g id="Heart"><path class="cls-4" d="M183.41,207.12a28.66,28.66,0,0,1,5.13.45,25,25,0,0,1,12.25,5.36,24.67,24.67,0,0,1,7.14,10.72A31.62,31.62,0,0,1,209.21,241c-1.17,6.18-3.71,10.29-6.89,15.31a89.9,89.9,0,0,1-14.55,17.35,155.64,155.64,0,0,1-28.32,21.27,155.64,155.64,0,0,1-28.32-21.27,89.9,89.9,0,0,1-14.55-17.35c-3.18-5-5.72-9.13-6.89-15.31A31.62,31.62,0,0,1,111,223.65a24.77,24.77,0,0,1,7.14-10.72,25,25,0,0,1,12.26-5.36,28.52,28.52,0,0,1,5.12-.45,30.53,30.53,0,0,1,7.63,1,22.73,22.73,0,0,1,9.44,4.33,21.37,21.37,0,0,1,6.89,10.72,21.44,21.44,0,0,1,6.89-10.72,22.73,22.73,0,0,1,9.44-4.33,30.53,30.53,0,0,1,7.63-1m0-11h0A41.67,41.67,0,0,0,173,197.44a33.21,33.21,0,0,0-13.57,6.42,33.15,33.15,0,0,0-13.62-6.43,41.5,41.5,0,0,0-10.34-1.3,40.24,40.24,0,0,0-7.07.62,34.24,34.24,0,0,0-27.73,23A42.33,42.33,0,0,0,98.88,243c1.6,8.44,5.22,14.15,8.42,19.19a100.86,100.86,0,0,0,16.23,19.4,168,168,0,0,0,30.37,22.81,11,11,0,0,0,11.1,0,168,168,0,0,0,30.37-22.81,101.23,101.23,0,0,0,16.24-19.41c3.2-5.05,6.82-10.76,8.4-19.16a42.3,42.3,0,0,0-1.8-23.3,34.31,34.31,0,0,0-27.69-23,41,41,0,0,0-7.11-.62Z"/></g><path d="M88.46,345.17H89l1.87,7.33,1.79-7.33h1l-2.31,8.52h-.87L88.78,347,87,353.69h-.87l-2.31-8.52h.94l1.8,7.33Z"/><path d="M97.58,345.17h1l3.14,8.52h-.94l-2.71-7.63-2.72,7.63h-.93Zm-1.7,5.67h4.49v.78H95.88Z"/><path d="M102.52,345.17h6V346h-6Zm2.58.35H106v8.17h-.85Z"/><path d="M111.6,353.39a2.69,2.69,0,0,1-1-1.12,3.67,3.67,0,0,1-.37-1.67v-2.33a3.67,3.67,0,0,1,.37-1.67,2.75,2.75,0,0,1,1-1.12,3.3,3.3,0,0,1,2.91-.1,2.8,2.8,0,0,1,1,.85,3,3,0,0,1,.56,1.27h-.84a2.27,2.27,0,0,0-.46-.85,2.08,2.08,0,0,0-.75-.57,2,2,0,0,0-.88-.21A2,2,0,0,0,111.3,347a2.92,2.92,0,0,0-.26,1.26v2.33a2.92,2.92,0,0,0,.26,1.26,2,2,0,0,0,1.86,1.14,2.09,2.09,0,0,0,.88-.2,2.05,2.05,0,0,0,.75-.56,2.28,2.28,0,0,0,.46-.87h.84a2.89,2.89,0,0,1-.56,1.26,2.82,2.82,0,0,1-1,.85,3,3,0,0,1-1.34.3A3.06,3.06,0,0,1,111.6,353.39Z"/><path d="M118.58,345.17h.84v8.52h-.84Zm.56,3.91h5.08v.81h-5.08Zm4.63-3.91h.84v8.52h-.84Z"/><path d="M134.06,345.17h1l3.14,8.52h-.93l-2.72-7.63-2.71,7.63h-.94Zm-1.69,5.67h4.48v.78h-4.48Z"/><path d="M140.41,345.17h.85v8.52h-.85Zm.81,7.74h1.93a2.49,2.49,0,0,0,1.77-.56,2.18,2.18,0,0,0,.59-1.66v-2.51a2.21,2.21,0,0,0-.59-1.67,2.49,2.49,0,0,0-1.77-.55h-1.93v-.79h1.89a4.33,4.33,0,0,1,1.81.34,2.23,2.23,0,0,1,1.08,1,3.73,3.73,0,0,1,.35,1.7v2.41a3.62,3.62,0,0,1-.36,1.7,2.26,2.26,0,0,1-1.08,1,4.16,4.16,0,0,1-1.8.34h-1.89Z"/><path d="M152.14,345.17h6V346h-6Zm2.58.35h.85v8.17h-.85Z"/><path d="M161.19,353.41a2.42,2.42,0,0,1-1-1.07,3.85,3.85,0,0,1-.35-1.7v-2.41a3.82,3.82,0,0,1,.35-1.7,2.5,2.5,0,0,1,1-1.08,3.34,3.34,0,0,1,1.62-.36,3.4,3.4,0,0,1,1.62.36,2.54,2.54,0,0,1,1,1.08,3.82,3.82,0,0,1,.35,1.7v2.41a3.85,3.85,0,0,1-.35,1.7,2.46,2.46,0,0,1-1,1.07,3.29,3.29,0,0,1-1.62.37A3.23,3.23,0,0,1,161.19,353.41Zm2.78-.69a1.7,1.7,0,0,0,.73-.79,2.78,2.78,0,0,0,.26-1.25v-2.5a2.84,2.84,0,0,0-.26-1.25,1.75,1.75,0,0,0-.73-.79,2.34,2.34,0,0,0-1.16-.27,2.38,2.38,0,0,0-1.17.27,1.8,1.8,0,0,0-.73.79,2.85,2.85,0,0,0-.25,1.25v2.5a2.79,2.79,0,0,0,.25,1.25,1.75,1.75,0,0,0,.73.79,2.38,2.38,0,0,0,1.17.28A2.34,2.34,0,0,0,164,352.72Z"/><path d="M174,353.39a2.63,2.63,0,0,1-1-1.12,3.54,3.54,0,0,1-.37-1.67v-2.33a3.54,3.54,0,0,1,.37-1.67,2.68,2.68,0,0,1,1-1.12,3.06,3.06,0,0,1,1.56-.39,3,3,0,0,1,1.34.29,2.84,2.84,0,0,1,1,.85,3.11,3.11,0,0,1,.56,1.27h-.84a2.42,2.42,0,0,0-.46-.85,2.17,2.17,0,0,0-.75-.57,2,2,0,0,0-.88-.21,2.06,2.06,0,0,0-1.12.3,2,2,0,0,0-.74.84,2.78,2.78,0,0,0-.27,1.26v2.33a2.78,2.78,0,0,0,.27,1.26,2,2,0,0,0,.74.84,2.06,2.06,0,0,0,1.12.3,2.09,2.09,0,0,0,.88-.2,2.14,2.14,0,0,0,.75-.56,2.42,2.42,0,0,0,.46-.87h.84a3,3,0,0,1-.56,1.26,2.82,2.82,0,0,1-1,.85,3,3,0,0,1-1.34.3A3.06,3.06,0,0,1,174,353.39Z"/><path d="M182,353.41a2.46,2.46,0,0,1-1-1.07,3.85,3.85,0,0,1-.35-1.7v-2.41a3.82,3.82,0,0,1,.35-1.7,2.54,2.54,0,0,1,1-1.08,3.85,3.85,0,0,1,3.25,0,2.54,2.54,0,0,1,1,1.08,3.82,3.82,0,0,1,.35,1.7v2.41a3.85,3.85,0,0,1-.35,1.7,2.46,2.46,0,0,1-1,1.07,3.75,3.75,0,0,1-3.25,0Zm2.79-.69a1.7,1.7,0,0,0,.73-.79,2.78,2.78,0,0,0,.26-1.25v-2.5a2.84,2.84,0,0,0-.26-1.25,1.75,1.75,0,0,0-.73-.79,2.65,2.65,0,0,0-2.33,0,1.75,1.75,0,0,0-.73.79,2.84,2.84,0,0,0-.26,1.25v2.5a2.78,2.78,0,0,0,.26,1.25,1.7,1.7,0,0,0,.73.79,2.56,2.56,0,0,0,2.33,0Z"/><path d="M189.37,345.17h.85l4.95,7.68-.35-.24v-7.44h.85v8.52h-.86L189.76,346l.46.34v7.4h-.85Z"/><path d="M198,345.17h6V346h-6Zm2.59.35h.84v8.17h-.84Z"/><path d="M207.08,353.69h-.85v-8.52h.85Z"/><path d="M210.26,345.17h.85l4.95,7.68-.35-.24v-7.44h.85v8.52h-.87l-5-7.74.46.34v7.4h-.85Z"/><path d="M220.77,353.43a2.2,2.2,0,0,1-1-1,4,4,0,0,1-.33-1.73v-5.5h.84v5.54a2.32,2.32,0,0,0,.54,1.68,2.59,2.59,0,0,0,3.22,0,2.32,2.32,0,0,0,.54-1.68v-5.54h.85v5.5a4,4,0,0,1-.33,1.73,2.27,2.27,0,0,1-1,1,3.53,3.53,0,0,1-1.67.35A3.47,3.47,0,0,1,220.77,353.43Z"/><path d="M228.21,345.17h.84v8.52h-.84Zm.58,0h4.89V346h-4.89Zm0,3.9H233v.78h-4.25Zm0,3.84h4.89v.78h-4.89Z"/><line class="cls-5" x1="82.3" y1="357.98" x2="236.3" y2="357.98"/></g></g></svg>