<svg xmlns="http://www.w3.org/2000/svg" viewBox="0 0 195.61 23.75"><g id="Layer_2" data-name="Layer 2"><g id="Layer_1-2" data-name="Layer 1"><g id="Typo"><path id="E" d="M195.61,22a1.55,1.55,0,0,1-1.55,1.55H182.21A1.55,1.55,0,0,1,180.66,22V1.79A1.54,1.54,0,0,1,182.21.24h11.85a1.55,1.55,0,1,1,0,3.1H183.93V10.4h8.36a1.56,1.56,0,1,1,0,3.11h-8.36v6.9h10.13A1.55,1.55,0,0,1,195.61,22Z"/><path id="U" d="M156.38,22.74a6.69,6.69,0,0,1-2.8-3,10.52,10.52,0,0,1-1-4.69V1.79A1.56,1.56,0,0,1,154.17.24h.17a1.56,1.56,0,0,1,1.55,1.55V15.21a5.55,5.55,0,0,0,1.28,3.93,4.66,4.66,0,0,0,3.62,1.4,4.72,4.72,0,0,0,3.64-1.4,5.56,5.56,0,0,0,1.29-3.93V1.79A1.55,1.55,0,0,1,167.27.24h.16A1.55,1.55,0,0,1,169,1.79v13.3a10.52,10.52,0,0,1-1,4.69,6.69,6.69,0,0,1-2.8,3,9,9,0,0,1-4.43,1A8.93,8.93,0,0,1,156.38,22.74Z"/><path id="N" d="M125,.24h.56a1.56,1.56,0,0,1,1.31.72l10.92,17.27-.38.42V1.79A1.55,1.55,0,0,1,138.94.24h.13a1.55,1.55,0,0,1,1.55,1.55V22a1.55,1.55,0,0,1-1.55,1.55h-.59a1.56,1.56,0,0,1-1.31-.72l-10.89-17,.38-.42V22a1.55,1.55,0,0,1-1.55,1.55H125A1.56,1.56,0,0,1,123.43,22V1.79A1.56,1.56,0,0,1,125,.24Z"/><path id="I" d="M109.56,23.51h-.16A1.54,1.54,0,0,1,107.85,22V1.79A1.55,1.55,0,0,1,109.4.24h.16a1.55,1.55,0,0,1,1.55,1.55V22A1.54,1.54,0,0,1,109.56,23.51Z"/><path id="T" d="M98.09,1.79a1.55,1.55,0,0,1-1.55,1.55H91.46a1.42,1.42,0,0,1,.05.36V22A1.55,1.55,0,0,1,90,23.52H89.8A1.55,1.55,0,0,1,88.25,22V3.7a1.42,1.42,0,0,1,0-.36H83.22a1.55,1.55,0,1,1,0-3.1H96.54A1.55,1.55,0,0,1,98.09,1.79Z"/><path id="N-2" data-name="N" d="M56.12.36h.56A1.56,1.56,0,0,1,58,1.08L68.91,18.35l-.38.42V1.91A1.55,1.55,0,0,1,70.08.36h.13a1.55,1.55,0,0,1,1.55,1.55V22.07a1.54,1.54,0,0,1-1.55,1.55h-.59a1.57,1.57,0,0,1-1.31-.71L57.42,5.9l.38-.42V22.07a1.54,1.54,0,0,1-1.55,1.55h-.13a1.54,1.54,0,0,1-1.55-1.55V1.91A1.55,1.55,0,0,1,56.12.36Z"/><path id="O" d="M30.09,22.69a7.27,7.27,0,0,1-2.88-3,9.7,9.7,0,0,1-1-4.51V8.58a9.7,9.7,0,0,1,1-4.51,7.33,7.33,0,0,1,2.88-3A8.43,8.43,0,0,1,34.38,0a8.48,8.48,0,0,1,4.29,1.06,7.37,7.37,0,0,1,2.87,3,9.58,9.58,0,0,1,1,4.51v6.59a9.58,9.58,0,0,1-1,4.51,7.31,7.31,0,0,1-2.87,3,8.48,8.48,0,0,1-4.29,1.06A8.43,8.43,0,0,1,30.09,22.69Zm6.82-2.8a4.33,4.33,0,0,0,1.7-1.84,6.09,6.09,0,0,0,.6-2.76V8.47a6,6,0,0,0-.6-2.76,4.27,4.27,0,0,0-1.7-1.84,5.27,5.27,0,0,0-5.07,0,4.33,4.33,0,0,0-1.7,1.84,6,6,0,0,0-.6,2.76v6.82a6.09,6.09,0,0,0,.6,2.76,4.39,4.39,0,0,0,1.7,1.84,5.27,5.27,0,0,0,5.07,0Z"/><path id="C" d="M3.85,22.68a7.26,7.26,0,0,1-2.84-3,9.88,9.88,0,0,1-1-4.56V8.69A9.88,9.88,0,0,1,1,4.13a7.35,7.35,0,0,1,2.84-3A8.21,8.21,0,0,1,8.1,0a8,8,0,0,1,3.68.86,7.78,7.78,0,0,1,2.81,2.42,8,8,0,0,1,.85,1.48A1.55,1.55,0,0,1,14,6.92h-.17A1.58,1.58,0,0,1,12.43,6a5.68,5.68,0,0,0-.67-1,5.07,5.07,0,0,0-1.68-1.32,4.49,4.49,0,0,0-2-.46,4.61,4.61,0,0,0-2.5.68A4.61,4.61,0,0,0,3.94,5.8a6.57,6.57,0,0,0-.59,2.89v6.39A6.56,6.56,0,0,0,3.94,18,4.49,4.49,0,0,0,5.6,19.89a4.61,4.61,0,0,0,2.5.68,4.72,4.72,0,0,0,2-.43,4.79,4.79,0,0,0,1.67-1.28,5,5,0,0,0,.68-1.08,1.58,1.58,0,0,1,1.42-.94H14a1.55,1.55,0,0,1,1.41,2.21,8,8,0,0,1-.83,1.42,7.8,7.8,0,0,1-2.81,2.43,8,8,0,0,1-3.67.85A8.21,8.21,0,0,1,3.85,22.68Z"/></g></g></g></svg>