<svg xmlns="http://www.w3.org/2000/svg" viewBox="0 0 154 13.39"><defs><style>.cls-1{fill:none;stroke:#000;stroke-miterlimit:10;}</style></defs><g id="Layer_2" data-name="Layer 2"><g id="Layer_1-2" data-name="Layer 1"><path d="M6.16,1.74h.59L8.61,9.06l1.8-7.32h.95L9,10.26H8.18L6.49,3.54,4.73,10.26H3.86L1.55,1.74h1L4.3,9.06Z" transform="translate(0 -1.65)"/><path d="M15.28,1.74h1l3.14,8.52H18.5L15.79,2.63l-2.71,7.63h-.94ZM13.59,7.41h4.48v.78H13.59Z" transform="translate(0 -1.65)"/><path d="M20.22,1.74h6v.79h-6Zm2.59.35h.84v8.17h-.84Z" transform="translate(0 -1.65)"/><path d="M29.31,10a2.68,2.68,0,0,1-1-1.12,3.57,3.57,0,0,1-.37-1.67V4.83a3.57,3.57,0,0,1,.37-1.67,2.6,2.6,0,0,1,1-1.11,2.91,2.91,0,0,1,1.55-.4,3,3,0,0,1,1.35.3,2.82,2.82,0,0,1,1,.85,3.19,3.19,0,0,1,.56,1.27H33a2.07,2.07,0,0,0-.46-.85,2.29,2.29,0,0,0-.74-.58,2.14,2.14,0,0,0-.89-.2,2.05,2.05,0,0,0-1.11.3,2,2,0,0,0-.74.84,2.77,2.77,0,0,0-.27,1.25V7.17A2.78,2.78,0,0,0,29,8.43a2,2,0,0,0,.74.84,2.23,2.23,0,0,0,2,.1,2.23,2.23,0,0,0,.74-.56A2.12,2.12,0,0,0,33,7.93h.85a3.19,3.19,0,0,1-.56,1.27,2.85,2.85,0,0,1-1,.85A3.21,3.21,0,0,1,29.31,10Z" transform="translate(0 -1.65)"/><path d="M36.28,1.74h.84v8.52h-.84Zm.57,3.9h5.08v.82H36.85Zm4.62-3.9h.85v8.52h-.85Z" transform="translate(0 -1.65)"/><path d="M51.77,1.74h1l3.14,8.52H55L52.28,2.63l-2.72,7.63h-.93Zm-1.7,5.67h4.49v.78H50.07Z" transform="translate(0 -1.65)"/><path d="M58.12,1.74H59v8.52h-.84Zm.81,7.73h1.92a2.53,2.53,0,0,0,1.78-.55,2.19,2.19,0,0,0,.58-1.67V4.75a2.19,2.19,0,0,0-.58-1.67,2.53,2.53,0,0,0-1.78-.55H58.93V1.74h1.89a4.16,4.16,0,0,1,1.8.34,2.26,2.26,0,0,1,1.08,1,3.62,3.62,0,0,1,.36,1.7V7.21A3.55,3.55,0,0,1,63.7,8.9a2.33,2.33,0,0,1-1.08,1,4.21,4.21,0,0,1-1.81.34H58.93Z" transform="translate(0 -1.65)"/><path d="M69.84,1.74h6v.79h-6Zm2.59.35h.84v8.17h-.84Z" transform="translate(0 -1.65)"/><path d="M78.89,10a2.4,2.4,0,0,1-1-1.07,3.71,3.71,0,0,1-.35-1.7V4.79a3.71,3.71,0,0,1,.35-1.7,2.45,2.45,0,0,1,1-1.07,3.73,3.73,0,0,1,3.24,0,2.45,2.45,0,0,1,1,1.07,3.71,3.71,0,0,1,.35,1.7V7.21a3.71,3.71,0,0,1-.35,1.7,2.4,2.4,0,0,1-1,1.07,3.73,3.73,0,0,1-3.24,0Zm2.78-.69a1.77,1.77,0,0,0,.74-.79,2.82,2.82,0,0,0,.25-1.25V4.75a2.82,2.82,0,0,0-.25-1.25,1.77,1.77,0,0,0-.74-.79,2.63,2.63,0,0,0-2.32,0,1.83,1.83,0,0,0-.74.79,2.82,2.82,0,0,0-.25,1.25v2.5a2.82,2.82,0,0,0,.25,1.25,1.83,1.83,0,0,0,.74.79,2.63,2.63,0,0,0,2.32,0Z" transform="translate(0 -1.65)"/><path d="M91.69,10a2.81,2.81,0,0,1-1-1.12,3.7,3.7,0,0,1-.36-1.67V4.83a3.7,3.7,0,0,1,.36-1.67,2.72,2.72,0,0,1,1-1.11,3,3,0,0,1,1.56-.4A3,3,0,0,1,94.6,2a2.82,2.82,0,0,1,1,.85,3.19,3.19,0,0,1,.56,1.27h-.85a2.19,2.19,0,0,0-.46-.85,2.23,2.23,0,0,0-.75-.58,2.09,2.09,0,0,0-.88-.2,2,2,0,0,0-1.86,1.14,2.91,2.91,0,0,0-.26,1.25V7.17a2.92,2.92,0,0,0,.26,1.26,2,2,0,0,0,.75.84,2.14,2.14,0,0,0,1.11.29,2.08,2.08,0,0,0,.88-.19,2.17,2.17,0,0,0,.75-.56,2.25,2.25,0,0,0,.46-.88h.85a3.07,3.07,0,0,1-.57,1.27,2.74,2.74,0,0,1-1,.85,3,3,0,0,1-1.34.3A3.06,3.06,0,0,1,91.69,10Z" transform="translate(0 -1.65)"/><path d="M99.75,10a2.4,2.4,0,0,1-1-1.07,3.71,3.71,0,0,1-.35-1.7V4.79a3.71,3.71,0,0,1,.35-1.7,2.45,2.45,0,0,1,1-1.07A3.73,3.73,0,0,1,103,2a2.45,2.45,0,0,1,1,1.07,3.71,3.71,0,0,1,.35,1.7V7.21a3.71,3.71,0,0,1-.35,1.7A2.4,2.4,0,0,1,103,10a3.73,3.73,0,0,1-3.24,0Zm2.78-.69a1.83,1.83,0,0,0,.74-.79,2.82,2.82,0,0,0,.25-1.25V4.75a2.82,2.82,0,0,0-.25-1.25,1.83,1.83,0,0,0-.74-.79,2.63,2.63,0,0,0-2.32,0,1.77,1.77,0,0,0-.74.79,2.82,2.82,0,0,0-.25,1.25v2.5a2.82,2.82,0,0,0,.25,1.25,1.77,1.77,0,0,0,.74.79,2.63,2.63,0,0,0,2.32,0Z" transform="translate(0 -1.65)"/><path d="M107.08,1.74h.85l4.94,7.68-.34-.24V1.74h.84v8.51h-.86l-5-7.73.45.33v7.4h-.84Z" transform="translate(0 -1.65)"/><path d="M115.68,1.74h6v.79h-6Zm2.58.35h.85v8.17h-.85Z" transform="translate(0 -1.65)"/><path d="M124.78,10.26h-.84V1.74h.84Z" transform="translate(0 -1.65)"/><path d="M128,1.74h.85l4.94,7.68-.34-.24V1.74h.84v8.51h-.86l-5.05-7.73.46.33v7.4H128Z" transform="translate(0 -1.65)"/><path d="M138.48,10a2.22,2.22,0,0,1-1-1,4,4,0,0,1-.33-1.73V1.74H138V7.28A2.35,2.35,0,0,0,138.53,9a2.13,2.13,0,0,0,1.61.56A2.17,2.17,0,0,0,141.76,9a2.36,2.36,0,0,0,.54-1.68V1.74h.84v5.5A4,4,0,0,1,142.81,9a2.17,2.17,0,0,1-1,1,3.59,3.59,0,0,1-1.67.35A3.55,3.55,0,0,1,138.48,10Z" transform="translate(0 -1.65)"/><path d="M145.92,1.74h.84v8.52h-.84Zm.58,0h4.89v.79H146.5Zm0,3.9h4.24v.78H146.5Zm0,3.83h4.89v.79H146.5Z" transform="translate(0 -1.65)"/><line class="cls-1" y1="12.89" x2="154" y2="12.89"/></g></g></svg>