<svg xmlns="http://www.w3.org/2000/svg" viewBox="0 0 60.12 25.27"><defs><style>.cls-1{fill:#231f20;}.cls-2{fill:#fff;}</style></defs><g id="Layer_2" data-name="Layer 2"><g id="Best"><rect id="Black_BG" data-name="Black BG" class="cls-1" width="60.12" height="25.27" rx="5.45"/><g id="Typo"><path id="B" class="cls-2" d="M17.35,14.12a4.08,4.08,0,0,0-1-1.24,7.45,7.45,0,0,0-.77-.54l-.15-.09.18-.13a6.16,6.16,0,0,0,.69-.49,3.57,3.57,0,0,0,.89-1.13,3.45,3.45,0,0,0,.29-1.41A4.46,4.46,0,0,0,17,7,3.22,3.22,0,0,0,15.6,5.62a5.19,5.19,0,0,0-2.36-.48H10A2.49,2.49,0,0,0,7.49,7.63v9.61A2.49,2.49,0,0,0,10,19.73h3.43a5,5,0,0,0,2.26-.49,3.57,3.57,0,0,0,1.5-1.4,4,4,0,0,0,.52-2.08v0A3.78,3.78,0,0,0,17.35,14.12ZM9.52,9.18A2.14,2.14,0,0,1,11.67,7h1.2a2.93,2.93,0,0,1,1.92.54,2,2,0,0,1,.64,1.64,2,2,0,0,1-.57,1.57,2.48,2.48,0,0,1-1.71.53H11.67A2.14,2.14,0,0,1,9.52,9.18Zm6.1,6.4a2,2,0,0,1-.71,1.66,3.55,3.55,0,0,1-2.27.59h-1a2.14,2.14,0,0,1-2.15-2.14v-.38a2.14,2.14,0,0,1,2.15-2.14h1.48a3.08,3.08,0,0,1,1.41.28,1.79,1.79,0,0,1,.81.82,2.94,2.94,0,0,1,.25,1.27Z"/><path id="E_Lower" data-name="E Lower" class="cls-2" d="M30.12,18.76a1,1,0,0,1-1,1H22.72a1,1,0,1,1,0-1.95h6.43a1,1,0,0,1,1,1Z"/><path id="E_Middle" data-name="E Middle" class="cls-2" d="M30.14,12.49a1,1,0,0,1-1,1H22.72a1,1,0,1,1,0-2h6.44a1,1,0,0,1,1,1Z"/><rect id="E_Upper" data-name="E Upper" class="cls-2" x="21.74" y="5.14" width="8.38" height="1.95" rx="0.97"/><path id="S" class="cls-2" d="M42.77,15.63v0a4,4,0,0,1-.63,2.28,3.92,3.92,0,0,1-1.83,1.44,7.61,7.61,0,0,1-2.9.5,9.73,9.73,0,0,1-2-.2,8.1,8.1,0,0,1-1.76-.6c-.22-.11-.43-.23-.63-.35a1,1,0,0,1-.24-1.47v0A1,1,0,0,1,34.09,17a5.48,5.48,0,0,0,1.14.56,6.43,6.43,0,0,0,2.18.36,4.39,4.39,0,0,0,2.46-.58,1.9,1.9,0,0,0,.87-1.66h0a1.78,1.78,0,0,0-.39-1.21,2.35,2.35,0,0,0-1-.66,10.62,10.62,0,0,0-1.62-.4h-.13l-.15,0A15.8,15.8,0,0,1,35,12.81a3.32,3.32,0,0,1-1.57-1.15,3.77,3.77,0,0,1-.65-2.38h0A4.28,4.28,0,0,1,33.42,7a3.89,3.89,0,0,1,1.77-1.46,7.7,7.7,0,0,1,4.34-.33,7.59,7.59,0,0,1,1.5.51l.52.26a1,1,0,0,1,.32,1.44,1,1,0,0,1-.81.42.91.91,0,0,1-.48-.13,6.51,6.51,0,0,0-.93-.44A4.81,4.81,0,0,0,38,6.92a3.9,3.9,0,0,0-2.32.6,2,2,0,0,0-.83,1.68v0a1.63,1.63,0,0,0,.43,1.18,2.58,2.58,0,0,0,1.06.64,16.92,16.92,0,0,0,1.77.42l.08,0h.07l.11,0,.12,0a12.69,12.69,0,0,1,2.21.64,3.5,3.5,0,0,1,1.48,1.2A3.79,3.79,0,0,1,42.77,15.63Z"/><path id="T" class="cls-2" d="M54,6.11h0a1,1,0,0,1-1,1H51.43a1.59,1.59,0,0,0-1.59,1.59v10a1,1,0,0,1-1,1,1.07,1.07,0,0,1-.73-.3,1,1,0,0,1-.29-.73v-10a1.59,1.59,0,0,0-1.59-1.59H44.65a1,1,0,0,1-1-1h0a1,1,0,0,1,1-1H53A1,1,0,0,1,54,6.11Z"/></g></g></g></svg>