<svg xmlns="http://www.w3.org/2000/svg" viewBox="0 0 238.25 177.66"><defs><style>.cls-1{fill:#ed1c24;}.cls-2{fill:#231f20;}.cls-3{fill:#fff;}</style></defs><g id="Layer_2" data-name="Layer 2"><g id="Best"><path class="cls-1" d="M238.25,25.59v129a23.1,23.1,0,0,1-23.1,23.1H25.59a23,23,0,0,1-18.15-8.83L231.25,9A23,23,0,0,1,238.25,25.59Z"/><path class="cls-2" d="M228.75,6.54,201.54,26l-11.8,8.41L133,74.89l-26.62,19-60.21,43-11.8,8.42L14.17,159.74l-9.23,6.59A22.91,22.91,0,0,1,0,152.07v-129A23.09,23.09,0,0,1,23.09,0H212.65A23,23,0,0,1,228.75,6.54Z"/><polygon class="cls-3" points="4.94 166.33 228.75 6.54 231.25 9.04 7.44 168.83 4.94 166.33"/></g></g></svg>