<svg xmlns="http://www.w3.org/2000/svg" viewBox="0 0 212.61 18.3"><defs><style>.cls-1{fill:#231f20;}.cls-2{fill:red;}</style></defs><g id="Layer_2" data-name="Layer 2"><g id="Best"><g id="Phrase"><rect id="Right_E_Middle" data-name="Right E Middle" class="cls-1" x="174.7" y="7.77" width="10.73" height="3.24" rx="1.62"/><path id="Right_E_Up_Down" data-name="Right E Up/Down" class="cls-2" d="M176.27,0h7.5a1.61,1.61,0,0,1,1.61,1.62h0a1.62,1.62,0,0,1-1.61,1.62h-7.5a1.62,1.62,0,0,1-1.61-1.62h0A1.61,1.61,0,0,1,176.27,0Zm0,14.59h7.5a1.62,1.62,0,0,1,1.61,1.62h0a1.62,1.62,0,0,1-1.61,1.62h-7.5a1.62,1.62,0,0,1-1.61-1.62h0A1.62,1.62,0,0,1,176.27,14.59Z"/><rect id="Left_E_Middle" data-name="Left E Middle" class="cls-2" x="83.09" y="8.06" width="10.73" height="3.24" rx="1.62"/><g id="Without_Parts_of_E" data-name="Without Parts of E"><path class="cls-2" d="M11.44,8.15a1.61,1.61,0,0,1,1.61,1.61v1.87a7.33,7.33,0,0,1-.81,3.51A5.63,5.63,0,0,1,10,17.48a6.86,6.86,0,0,1-3.41.82,7.3,7.3,0,0,1-3.44-.77,5.57,5.57,0,0,1-2.3-2.21A6.4,6.4,0,0,1,0,12V6.77a7.41,7.41,0,0,1,.8-3.5A5.75,5.75,0,0,1,3.08.94,6.83,6.83,0,0,1,6.49.11,6.6,6.6,0,0,1,9.43.77a6,6,0,0,1,2.25,1.85l.13.18a1.67,1.67,0,0,1-1.38,2.61h-.28a1.57,1.57,0,0,1-1.23-.69,2.35,2.35,0,0,0-.26-.29,2.82,2.82,0,0,0-1-.62,3.21,3.21,0,0,0-1.18-.22A3.11,3.11,0,0,0,4.91,4,2.77,2.77,0,0,0,3.86,5.1a3.58,3.58,0,0,0-.38,1.67V12a2.87,2.87,0,0,0,.38,1.47,2.63,2.63,0,0,0,1.08,1,3.64,3.64,0,0,0,1.62.34,3.28,3.28,0,0,0,1.59-.37,2.57,2.57,0,0,0,1-1.09,3.65,3.65,0,0,0,.36-1.68v-.29H8.48A1.62,1.62,0,0,1,6.87,9.77h0A1.62,1.62,0,0,1,8.48,8.15Z"/><path class="cls-2" d="M32.08.29h0a1.55,1.55,0,0,1,1.44,1l5.57,14.56a1.67,1.67,0,0,1-1.56,2.27h0A1.68,1.68,0,0,1,36,17L32.08,6,28.2,17a1.67,1.67,0,0,1-1.58,1.12h0a1.67,1.67,0,0,1-1.56-2.27L30.63,1.29A1.55,1.55,0,0,1,32.08.29Z"/><path class="cls-2" d="M67.86,2.91V16.52a1.57,1.57,0,0,1-1.14,1.55,1.52,1.52,0,0,1-1.91-1.48V6.87a.22.22,0,0,0-.42-.07L62,14.71a2,2,0,0,1-3.85,0L55.68,7a.21.21,0,0,0-.41.06V16.5A1.6,1.6,0,0,1,54,18.1a1.54,1.54,0,0,1-1.79-1.51V2.91A2.59,2.59,0,0,1,54,.4a2.54,2.54,0,0,1,3.17,1.72l2.55,9a.34.34,0,0,0,.65,0l2.55-9A2.52,2.52,0,0,1,66.07.4,2.59,2.59,0,0,1,67.86,2.91Z"/><path class="cls-1" d="M84.66.29h7.49a1.62,1.62,0,0,1,1.61,1.62h0a1.61,1.61,0,0,1-1.61,1.62H84.66A1.61,1.61,0,0,1,83,1.91h0A1.62,1.62,0,0,1,84.66.29Zm0,14.59h7.49a1.62,1.62,0,0,1,1.61,1.62h0a1.61,1.61,0,0,1-1.61,1.62H84.66A1.61,1.61,0,0,1,83,16.5h0A1.62,1.62,0,0,1,84.66,14.88Z"/><path class="cls-2" d="M126.39,17.49a5.6,5.6,0,0,1-2.29-2.31,7.09,7.09,0,0,1-.81-3.45V6.68a7.09,7.09,0,0,1,.81-3.45,5.64,5.64,0,0,1,2.29-2.3,7.52,7.52,0,0,1,6.83,0,5.67,5.67,0,0,1,2.28,2.3,7.09,7.09,0,0,1,.81,3.45v5.05a7.09,7.09,0,0,1-.81,3.45,5.64,5.64,0,0,1-2.28,2.31,7.6,7.6,0,0,1-6.83,0Zm5-2.93a2.62,2.62,0,0,0,1.06-1.1,3.45,3.45,0,0,0,.37-1.64V6.6A3.49,3.49,0,0,0,132.46,5a2.68,2.68,0,0,0-1.06-1.1,3.54,3.54,0,0,0-3.19,0A2.68,2.68,0,0,0,127.15,5a3.49,3.49,0,0,0-.37,1.65v5.22a3.45,3.45,0,0,0,.37,1.64,2.62,2.62,0,0,0,1.06,1.1,3.54,3.54,0,0,0,3.19,0Z"/><path class="cls-2" d="M150.34.29h0a1.62,1.62,0,0,1,1.55,1.14l3.18,10a.26.26,0,0,0,.5,0l3.18-10A1.62,1.62,0,0,1,160.3.29h0a1.63,1.63,0,0,1,1.55,2.15l-4.8,14.44a1.83,1.83,0,0,1-1.73,1.24h0a1.83,1.83,0,0,1-1.73-1.24l-4.8-14.44A1.64,1.64,0,0,1,150.34.29Z"/><path class="cls-2" d="M205.41,10.91v0h0Z"/><path class="cls-2" d="M210.33,18.12h0a1.74,1.74,0,0,1-1.54-.91l-3.38-6.3v-2a1.17,1.17,0,0,1,1.17-1.18h.83a1.62,1.62,0,0,0,.91-.26,1.73,1.73,0,0,0,.61-.74,2.83,2.83,0,0,0,.22-1.1,2.7,2.7,0,0,0-.21-1.1,1.6,1.6,0,0,0-1.53-1h-3.26a.92.92,0,0,0-.92.92V16.31a1.76,1.76,0,0,1-1.44,1.79,1.68,1.68,0,0,1-1.92-1.66V1.73A1.45,1.45,0,0,1,201.32.28h6.36a5,5,0,0,1,2.59.66A4.48,4.48,0,0,1,212,2.81a6.11,6.11,0,0,1,.61,2.8,6.08,6.08,0,0,1-.61,2.8,4.43,4.43,0,0,1-1.74,1.87,4.65,4.65,0,0,1-1.17.48l2.74,4.74A1.74,1.74,0,0,1,210.33,18.12Z"/></g></g></g></g></svg>