<svg xmlns="http://www.w3.org/2000/svg" viewBox="0 0 20.04 22.44"><defs><style>.cls-1{fill:#ff0;}</style></defs><g id="Layer_2" data-name="Layer 2"><g id="Best"><path id="Home-2" data-name="Home" class="cls-1" d="M8.66.63c-1,.9-3.95,3.76-7.86,7.73A2.37,2.37,0,0,0,.3,9a2.64,2.64,0,0,0-.27.7L0,20.77a1.78,1.78,0,0,0,.37,1.1,1.72,1.72,0,0,0,.8.57H5.43a2.17,2.17,0,0,0,.8-.4,2,2,0,0,0,.63-.93v-6a3.2,3.2,0,0,1,6.29-.3L13.22,21a1.47,1.47,0,0,0,1.46,1.36l3.93,0A1.67,1.67,0,0,0,20,21L20,10a1.93,1.93,0,0,0-.13-.73,1.82,1.82,0,0,0-.6-.76L11.42.63A2,2,0,0,0,10.05,0,2.08,2.08,0,0,0,8.66.63Z"/></g></g></svg>