<svg xmlns="http://www.w3.org/2000/svg" viewBox="0 0 77.96 23.27"><defs><style>.cls-1{fill:#ed1c24;}.cls-2{fill:#fff;}</style></defs><g id="Layer_2" data-name="Layer 2"><g id="Best"><rect id="Red_BG" data-name="Red BG" class="cls-1" width="77.96" height="23.27" rx="3.96"/><g id="Typo"><g id="E"><rect id="Lower" class="cls-2" x="64.17" y="17.53" width="9.55" height="2.22" rx="1.11"/><rect id="Middle" class="cls-2" x="64.17" y="10.38" width="9.59" height="2.22" rx="1.11"/><path id="Upper" class="cls-2" d="M73.72,4.23a1.11,1.11,0,0,1-1.1,1.11H65.28a1.11,1.11,0,1,1,0-2.22h7.34a1.09,1.09,0,0,1,1.1,1.11Z"/></g><path id="R" class="cls-2" d="M59,18a1.21,1.21,0,0,1-1.07,1.78,1.23,1.23,0,0,1-1.09-.67l-3.07-6.19a.81.81,0,0,1-.09-.37v-1.2a.83.83,0,0,1,.83-.82,2.14,2.14,0,0,0,1.18-.33,2,2,0,0,0,.79-.91,3,3,0,0,0,.28-1.35,3.12,3.12,0,0,0-.28-1.36,2.13,2.13,0,0,0-.79-.91,2.19,2.19,0,0,0-1.18-.32H50.72a.62.62,0,0,0-.62.62V18.58a1.17,1.17,0,1,1-2.33,0V4a.88.88,0,0,1,.88-.88h5.72a5.17,5.17,0,0,1,2.53.6,4.25,4.25,0,0,1,1.7,1.69,5.16,5.16,0,0,1,.6,2.52,5.16,5.16,0,0,1-.61,2.52,4.25,4.25,0,0,1-1.7,1.69,4.7,4.7,0,0,1-.83.35Z"/><g id="O"><path id="O_Compound_Path" data-name="O Compound Path" class="cls-2" d="M43.49,5.86a5.13,5.13,0,0,0-2.05-2.15,6.49,6.49,0,0,0-6.13,0,5.07,5.07,0,0,0-2.05,2.15,6.77,6.77,0,0,0-.73,3.22v4.71A6.8,6.8,0,0,0,33.26,17a5.12,5.12,0,0,0,2.05,2.15,6.56,6.56,0,0,0,6.13,0A5.19,5.19,0,0,0,43.49,17a6.8,6.8,0,0,0,.73-3.22V9.08A6.77,6.77,0,0,0,43.49,5.86Zm-1.66,8a4.24,4.24,0,0,1-.43,2,3.16,3.16,0,0,1-1.21,1.32,3.81,3.81,0,0,1-3.63,0,3.1,3.1,0,0,1-1.21-1.32,4.24,4.24,0,0,1-.43-2V9a4.31,4.31,0,0,1,.43-2,3.13,3.13,0,0,1,1.21-1.31,3.74,3.74,0,0,1,3.63,0A3.19,3.19,0,0,1,41.4,7a4.31,4.31,0,0,1,.43,2Z"/></g><path id="C" class="cls-2" d="M29.49,16.61a6.72,6.72,0,0,1-.58,1,5.6,5.6,0,0,1-4.63,2.34,5.94,5.94,0,0,1-3-.76,5.28,5.28,0,0,1-2-2.18,7.05,7.05,0,0,1-.72-3.26V9.16a7,7,0,0,1,.72-3.26,5.22,5.22,0,0,1,2-2.18,5.85,5.85,0,0,1,3-.78,5.69,5.69,0,0,1,2.63.62,5.57,5.57,0,0,1,2,1.73,5.87,5.87,0,0,1,.57,1,1.15,1.15,0,0,1-1.06,1.63h0a1.16,1.16,0,0,1-1-.65,2.93,2.93,0,0,0-.48-.74,3.41,3.41,0,0,0-1.19-1,3.21,3.21,0,0,0-4.39,1.54,4.64,4.64,0,0,0-.43,2.07v4.56a4.63,4.63,0,0,0,.43,2.06,3.1,3.1,0,0,0,1.19,1.38,3.28,3.28,0,0,0,1.78.49,3.54,3.54,0,0,0,1.43-.31,3.54,3.54,0,0,0,1.67-1.69A1.16,1.16,0,0,1,28.43,15,1.16,1.16,0,0,1,29.49,16.61Z"/><path id="S" class="cls-2" d="M16,15.08v0a4.59,4.59,0,0,1-.72,2.6,4.5,4.5,0,0,1-2.08,1.65,8.85,8.85,0,0,1-3.31.56,10.34,10.34,0,0,1-2.27-.23,8.65,8.65,0,0,1-2-.68c-.24-.12-.47-.25-.7-.39a1.14,1.14,0,0,1-.29-1.68l0,0a1.13,1.13,0,0,1,1.49-.24,6.09,6.09,0,0,0,1.28.63,7.13,7.13,0,0,0,2.48.42,5.07,5.07,0,0,0,2.81-.67,2.16,2.16,0,0,0,1-1.9h0a2,2,0,0,0-.45-1.38A2.63,2.63,0,0,0,12,13a11.25,11.25,0,0,0-1.84-.45h-.08l-.07,0-.17,0a17.65,17.65,0,0,1-2.72-.65,3.82,3.82,0,0,1-1.79-1.31,4.34,4.34,0,0,1-.74-2.72h0a4.85,4.85,0,0,1,.69-2.64,4.29,4.29,0,0,1,2-1.66,8,8,0,0,1,3.19-.58,8.05,8.05,0,0,1,1.76.2,8.54,8.54,0,0,1,1.7.58l.59.29a1.13,1.13,0,0,1,.58,1,1.11,1.11,0,0,1-.22.66A1.13,1.13,0,0,1,13.46,6a7,7,0,0,0-1-.49,5.49,5.49,0,0,0-1.89-.35,4.49,4.49,0,0,0-2.65.68,2.24,2.24,0,0,0-.94,1.93h0a1.86,1.86,0,0,0,.48,1.35,3,3,0,0,0,1.21.73,18.64,18.64,0,0,0,2,.48l.09,0,.09,0,.12,0,.13,0a13.48,13.48,0,0,1,2.52.74,3.84,3.84,0,0,1,1.69,1.36A4.29,4.29,0,0,1,16,15.08Z"/></g></g></g></svg>