<svg xmlns="http://www.w3.org/2000/svg" viewBox="0 0 318.9 566.93"><defs><style>.cls-1{fill:#fff;}.cls-2{fill:#ed1c24;}.cls-3{fill:#231f20;}.cls-4{fill:red;}.cls-5{fill:#ff0;}</style></defs><g id="Layer_2" data-name="Layer 2"><g id="Best"><rect id="White_BG" data-name="White BG" class="cls-1" width="318.9" height="566.93"/><path class="cls-2" d="M278.57,180.88v129a23.09,23.09,0,0,1-23.09,23.09H65.92a23,23,0,0,1-18.15-8.83l223.8-159.79A23,23,0,0,1,278.57,180.88Z"/><path class="cls-3" d="M269.07,161.82l-27.21,19.43-11.79,8.42-56.73,40.5-26.62,19-60.21,43-11.8,8.42L54.5,315l-9.23,6.59a22.89,22.89,0,0,1-4.94-14.26v-129a23.1,23.1,0,0,1,23.09-23.1H253A23,23,0,0,1,269.07,161.82Z"/><polygon class="cls-1" points="45.27 321.61 269.07 161.82 271.57 164.32 47.77 324.11 45.27 321.61"/><rect class="cls-3" x="183.21" y="414.38" width="85.79" height="34.21" rx="13.53"/><rect class="cls-2" x="49.9" y="414.38" width="85.79" height="34.21" rx="13.55"/><g id="Phrase"><rect id="Right_E_Middle" data-name="Right E Middle" class="cls-3" x="227.85" y="104.44" width="10.73" height="3.24" rx="1.62"/><path id="Right_E_Up_Down" data-name="Right E Up/Down" class="cls-4" d="M229.42,96.67h7.49a1.62,1.62,0,0,1,1.62,1.62h0a1.62,1.62,0,0,1-1.62,1.62h-7.49a1.63,1.63,0,0,1-1.62-1.62h0A1.63,1.63,0,0,1,229.42,96.67Zm0,14.59h7.49a1.62,1.62,0,0,1,1.62,1.62h0a1.62,1.62,0,0,1-1.62,1.62h-7.49a1.63,1.63,0,0,1-1.62-1.62h0A1.63,1.63,0,0,1,229.42,111.26Z"/><rect id="Left_E_Middle" data-name="Left E Middle" class="cls-4" x="136.23" y="104.73" width="10.73" height="3.24" rx="1.62"/><g id="Without_Parts_of_E" data-name="Without Parts of E"><path class="cls-4" d="M64.59,104.82a1.61,1.61,0,0,1,1.6,1.61v1.88a7.43,7.43,0,0,1-.8,3.5,5.71,5.71,0,0,1-2.28,2.34,6.82,6.82,0,0,1-3.4.83,7.3,7.3,0,0,1-3.44-.78A5.63,5.63,0,0,1,54,112a6.56,6.56,0,0,1-.81-3.3v-5.26a7.29,7.29,0,0,1,.8-3.5,5.66,5.66,0,0,1,2.27-2.33,6.86,6.86,0,0,1,3.41-.83,6.6,6.6,0,0,1,2.94.66,6,6,0,0,1,2.25,1.85l.14.18a1.67,1.67,0,0,1-1.39,2.61H63.3a1.54,1.54,0,0,1-1.24-.69,2.26,2.26,0,0,0-.25-.29,2.86,2.86,0,0,0-1-.62,3.17,3.17,0,0,0-1.18-.22,3.1,3.1,0,0,0-1.57.39A2.73,2.73,0,0,0,57,101.77a3.57,3.57,0,0,0-.37,1.67v5.26a2.78,2.78,0,0,0,.38,1.47,2.51,2.51,0,0,0,1.08,1,3.58,3.58,0,0,0,1.62.34,3.21,3.21,0,0,0,1.58-.37A2.46,2.46,0,0,0,62.34,110a3.53,3.53,0,0,0,.37-1.68v-.29H61.63A1.62,1.62,0,0,1,60,106.44h0a1.63,1.63,0,0,1,1.62-1.62Z"/><path class="cls-4" d="M85.22,97h0a1.56,1.56,0,0,1,1.45,1l5.57,14.56a1.67,1.67,0,0,1-1.57,2.27h0a1.66,1.66,0,0,1-1.57-1.12l-3.88-11-3.87,11a1.68,1.68,0,0,1-1.58,1.12h0a1.67,1.67,0,0,1-1.56-2.27L83.77,98A1.56,1.56,0,0,1,85.22,97Z"/><path class="cls-4" d="M121,99.58v13.61a1.57,1.57,0,0,1-1.14,1.55,1.52,1.52,0,0,1-1.91-1.48v-9.72a.21.21,0,0,0-.41-.07l-2.44,7.91a2,2,0,0,1-3.85,0l-2.42-7.69a.22.22,0,0,0-.42.06v9.41a1.6,1.6,0,0,1-1.26,1.6,1.54,1.54,0,0,1-1.8-1.51V99.58a2.59,2.59,0,0,1,1.78-2.51,2.53,2.53,0,0,1,3.17,1.72l2.55,9a.34.34,0,0,0,.65,0l2.55-9a2.54,2.54,0,0,1,3.17-1.72A2.59,2.59,0,0,1,121,99.58Z"/><path class="cls-3" d="M137.8,97h7.49a1.62,1.62,0,0,1,1.62,1.62h0a1.61,1.61,0,0,1-1.62,1.62H137.8a1.62,1.62,0,0,1-1.62-1.62h0A1.63,1.63,0,0,1,137.8,97Zm0,14.6h7.49a1.61,1.61,0,0,1,1.62,1.61h0a1.61,1.61,0,0,1-1.62,1.62H137.8a1.62,1.62,0,0,1-1.62-1.62h0A1.62,1.62,0,0,1,137.8,111.56Z"/><path class="cls-4" d="M179.53,114.16a5.64,5.64,0,0,1-2.28-2.31,7.09,7.09,0,0,1-.81-3.45v-5.05a7.09,7.09,0,0,1,.81-3.45,5.67,5.67,0,0,1,2.28-2.3,7.52,7.52,0,0,1,6.83,0,5.64,5.64,0,0,1,2.29,2.3,7.09,7.09,0,0,1,.81,3.45v5.05a7.09,7.09,0,0,1-.81,3.45,5.6,5.6,0,0,1-2.29,2.31,7.52,7.52,0,0,1-6.83,0Zm5-2.93a2.62,2.62,0,0,0,1.06-1.1,3.45,3.45,0,0,0,.38-1.64v-5.22a3.49,3.49,0,0,0-.38-1.65,2.59,2.59,0,0,0-1.06-1.09,3.44,3.44,0,0,0-3.18,0,2.54,2.54,0,0,0-1.06,1.09,3.49,3.49,0,0,0-.38,1.65v5.22a3.45,3.45,0,0,0,.38,1.64,2.56,2.56,0,0,0,1.06,1.1,3.44,3.44,0,0,0,3.18,0Z"/><path class="cls-4" d="M203.48,97h0A1.63,1.63,0,0,1,205,98.1l3.18,10a.26.26,0,0,0,.5,0l3.17-10A1.64,1.64,0,0,1,213.45,97h0A1.64,1.64,0,0,1,215,99.11l-4.81,14.44a1.81,1.81,0,0,1-1.72,1.24h0a1.82,1.82,0,0,1-1.73-1.24l-4.8-14.44A1.63,1.63,0,0,1,203.48,97Z"/><path class="cls-4" d="M258.55,107.58v0h0Z"/><path class="cls-4" d="M263.47,114.79h0a1.76,1.76,0,0,1-1.54-.91l-3.38-6.3v-2a1.18,1.18,0,0,1,1.18-1.18h.82a1.62,1.62,0,0,0,.91-.26,1.73,1.73,0,0,0,.61-.74,2.83,2.83,0,0,0,.22-1.1,2.7,2.7,0,0,0-.21-1.1,1.6,1.6,0,0,0-1.53-1h-3.26a.92.92,0,0,0-.92.92V113a1.76,1.76,0,0,1-1.44,1.79,1.68,1.68,0,0,1-1.92-1.66V98.4A1.45,1.45,0,0,1,254.46,97h6.36a5,5,0,0,1,2.59.66,4.48,4.48,0,0,1,1.73,1.87,6.73,6.73,0,0,1,0,5.6A4.43,4.43,0,0,1,263.4,107a4.65,4.65,0,0,1-1.17.48l2.75,4.75A1.74,1.74,0,0,1,263.47,114.79Z"/></g></g><path id="Play" class="cls-5" d="M101.26,434.79,87.9,442.86a3.6,3.6,0,0,1-5.39-3.29V423.41a3.6,3.6,0,0,1,5.39-3.29l13.36,8.07A3.92,3.92,0,0,1,101.26,434.79Z"/><path id="Home" class="cls-5" d="M224.74,420.9c-1,.9-4,3.76-7.85,7.73a2.34,2.34,0,0,0-.5.63,2.64,2.64,0,0,0-.27.7l0,11.08a1.8,1.8,0,0,0,.36,1.1,1.74,1.74,0,0,0,.8.57h4.26a2,2,0,0,0,1.44-1.33v-6a3.2,3.2,0,0,1,6.29-.3l.06,6.26a1.54,1.54,0,0,0,.5,1,1.48,1.48,0,0,0,1,.36l3.93,0a1.72,1.72,0,0,0,1-.5,1.64,1.64,0,0,0,.43-.9l0-11.09a1.79,1.79,0,0,0-.14-.73,1.82,1.82,0,0,0-.59-.76l-7.89-7.83a1.84,1.84,0,0,0-2.77,0Z"/><rect id="Red_BG" data-name="Red BG" class="cls-2" x="63.64" y="177.09" width="77.96" height="23.27" rx="3.96"/><g id="Typo"><g id="E"><rect id="Lower" class="cls-1" x="127.81" y="194.62" width="9.55" height="2.22" rx="1.11"/><rect id="Middle" class="cls-1" x="127.81" y="187.47" width="9.59" height="2.22" rx="1.11"/><path id="Upper" class="cls-1" d="M137.36,181.31a1.1,1.1,0,0,1-1.11,1.11h-7.33a1.11,1.11,0,0,1,0-2.22h7.33a1.12,1.12,0,0,1,.79.33A1.1,1.1,0,0,1,137.36,181.31Z"/></g><path id="R" class="cls-1" d="M122.59,195.05a1.22,1.22,0,0,1-1.07,1.79,1.2,1.2,0,0,1-1.09-.68L117.36,190a.77.77,0,0,1-.09-.36v-1.2a.83.83,0,0,1,.83-.83,2.08,2.08,0,0,0,2-1.23,3,3,0,0,0,.28-1.35,3.09,3.09,0,0,0-.28-1.36,2.14,2.14,0,0,0-.79-.91,2.19,2.19,0,0,0-1.18-.32h-3.74a.62.62,0,0,0-.62.62v12.64a1.17,1.17,0,0,1-2,.83,1.2,1.2,0,0,1-.34-.83v-14.6a.87.87,0,0,1,.88-.88H118a5.17,5.17,0,0,1,2.53.6,4.08,4.08,0,0,1,1.69,1.68,5.61,5.61,0,0,1,0,5.05,4.25,4.25,0,0,1-1.7,1.69,5.58,5.58,0,0,1-.83.35Z"/><g id="O"><path id="O_Compound_Path" data-name="O Compound Path" class="cls-1" d="M107.13,182.94a5.25,5.25,0,0,0-2-2.15A6.05,6.05,0,0,0,102,180a6,6,0,0,0-3.06.76,5.27,5.27,0,0,0-2.06,2.15,6.91,6.91,0,0,0-.72,3.22v4.72a6.91,6.91,0,0,0,.72,3.22A5.27,5.27,0,0,0,99,196.25,6.09,6.09,0,0,0,102,197a6.16,6.16,0,0,0,3.07-.76,5.25,5.25,0,0,0,2-2.15,6.8,6.8,0,0,0,.73-3.22v-4.72A6.8,6.8,0,0,0,107.13,182.94Zm-1.66,8a4.43,4.43,0,0,1-.43,2,3.16,3.16,0,0,1-1.21,1.32,3.62,3.62,0,0,1-1.82.46,3.58,3.58,0,0,1-1.81-.46A3.1,3.1,0,0,1,99,192.93a4.29,4.29,0,0,1-.43-2v-4.88a4.29,4.29,0,0,1,.43-2,3.1,3.1,0,0,1,1.21-1.32,3.48,3.48,0,0,1,1.81-.46,3.52,3.52,0,0,1,1.82.46,3.16,3.16,0,0,1,1.21,1.32,4.43,4.43,0,0,1,.43,2Z"/></g><path id="C" class="cls-1" d="M93.12,193.7a5.78,5.78,0,0,1-.57,1,5.59,5.59,0,0,1-2,1.74,5.8,5.8,0,0,1-2.62.61,5.89,5.89,0,0,1-3-.77,5.19,5.19,0,0,1-2-2.17,7.08,7.08,0,0,1-.72-3.26v-4.57a7.08,7.08,0,0,1,.72-3.26,5.28,5.28,0,0,1,2-2.18,5.89,5.89,0,0,1,3-.77,5.81,5.81,0,0,1,2.63.61,5.59,5.59,0,0,1,2,1.74,5.49,5.49,0,0,1,.57,1A1.15,1.15,0,0,1,92.07,185h0a1.16,1.16,0,0,1-1-.65,3.9,3.9,0,0,0-.48-.74,3.7,3.7,0,0,0-1.19-.94,3.38,3.38,0,0,0-3.21.16,3.28,3.28,0,0,0-1.19,1.38,4.77,4.77,0,0,0-.42,2.06v4.57a4.8,4.8,0,0,0,.42,2.06,3.12,3.12,0,0,0,3,1.86,3.4,3.4,0,0,0,2.61-1.22,3.12,3.12,0,0,0,.49-.78,1.11,1.11,0,0,1,.43-.48,1.1,1.1,0,0,1,.62-.18A1.15,1.15,0,0,1,93.12,193.7Z"/><path id="S" class="cls-1" d="M79.61,192.17v0a4.56,4.56,0,0,1-.72,2.6,4.46,4.46,0,0,1-2.09,1.65,8.56,8.56,0,0,1-3.3.57,11,11,0,0,1-2.27-.23,8.22,8.22,0,0,1-2-.69,6.8,6.8,0,0,1-.7-.38,1.13,1.13,0,0,1-.29-1.69v0a1.15,1.15,0,0,1,1.5-.23,6.09,6.09,0,0,0,1.28.63,7.37,7.37,0,0,0,2.48.41,5,5,0,0,0,2.81-.67,2.14,2.14,0,0,0,1-1.89h0a2,2,0,0,0-.45-1.38,2.74,2.74,0,0,0-1.17-.76,13.59,13.59,0,0,0-1.85-.45h-.14l-.18,0A17.62,17.62,0,0,1,70.8,189,3.77,3.77,0,0,1,69,187.63a4.29,4.29,0,0,1-.75-2.71v0a4.82,4.82,0,0,1,.69-2.63,4.41,4.41,0,0,1,2-1.67,8.1,8.1,0,0,1,3.2-.57,7.89,7.89,0,0,1,1.75.2,8.38,8.38,0,0,1,1.71.57l.59.3a1.11,1.11,0,0,1,.57,1,1.15,1.15,0,0,1-.21.66,1.13,1.13,0,0,1-1.48.33,6.1,6.1,0,0,0-1-.49,5.26,5.26,0,0,0-1.89-.35,4.42,4.42,0,0,0-2.65.68,2.23,2.23,0,0,0-1,1.93h0a1.86,1.86,0,0,0,.49,1.35,2.84,2.84,0,0,0,1.21.72,18.28,18.28,0,0,0,2,.49l.09,0h.08l.13,0,.13,0a14.61,14.61,0,0,1,2.52.73,3.92,3.92,0,0,1,1.69,1.37A4.36,4.36,0,0,1,79.61,192.17Z"/></g><rect id="Black_BG" data-name="Black BG" class="cls-3" x="196.41" y="288.46" width="60.12" height="25.27" rx="5.45"/><g id="Typo-2" data-name="Typo"><path id="B" class="cls-1" d="M213.76,302.58a4.08,4.08,0,0,0-1-1.24,6.48,6.48,0,0,0-.77-.54l-.15-.1.19-.12a8.28,8.28,0,0,0,.68-.49,3.3,3.3,0,0,0,.89-1.13,3.36,3.36,0,0,0,.29-1.41,4.31,4.31,0,0,0-.47-2.1,3.19,3.19,0,0,0-1.42-1.37,5.27,5.27,0,0,0-2.37-.48h-3.26a2.49,2.49,0,0,0-2.49,2.49v9.61a2.5,2.5,0,0,0,2.49,2.49h3.43a5,5,0,0,0,2.27-.5,3.46,3.46,0,0,0,1.49-1.39,4.08,4.08,0,0,0,.52-2.09v0A3.74,3.74,0,0,0,213.76,302.58Zm-7.82-4.94a2.14,2.14,0,0,1,2.14-2.15h1.2a2.91,2.91,0,0,1,1.92.55,2,2,0,0,1,.65,1.63,2.07,2.07,0,0,1-.58,1.58,2.47,2.47,0,0,1-1.71.53h-1.48a2.14,2.14,0,0,1-2.14-2.14ZM212,304a2,2,0,0,1-.72,1.67,3.54,3.54,0,0,1-2.26.59h-1a2.14,2.14,0,0,1-2.14-2.14v-.38a2.14,2.14,0,0,1,2.14-2.14h1.48a3.05,3.05,0,0,1,1.41.28,1.74,1.74,0,0,1,.81.82A2.9,2.9,0,0,1,212,304Z"/><path id="E_Lower" data-name="E Lower" class="cls-1" d="M226.53,307.21a1,1,0,0,1-1,1h-6.43a1,1,0,0,1,0-1.95h6.43a1,1,0,0,1,1,1Z"/><path id="E_Middle" data-name="E Middle" class="cls-1" d="M226.55,300.94a1,1,0,0,1-1,1h-6.45a1,1,0,0,1,0-1.95h6.45a1,1,0,0,1,1,1Z"/><rect id="E_Upper" data-name="E Upper" class="cls-1" x="218.16" y="293.6" width="8.38" height="1.95" rx="0.97"/><path id="S-2" data-name="S" class="cls-1" d="M239.18,304.09v0a4.07,4.07,0,0,1-.63,2.29,3.92,3.92,0,0,1-1.83,1.44,7.55,7.55,0,0,1-2.89.5,9.83,9.83,0,0,1-2-.2,7.62,7.62,0,0,1-1.76-.61c-.22-.1-.42-.22-.63-.34a1,1,0,0,1-.24-1.47v0a1,1,0,0,1,1.3-.22,5.52,5.52,0,0,0,1.14.57,6.39,6.39,0,0,0,2.18.36,4.37,4.37,0,0,0,2.45-.59,1.87,1.87,0,0,0,.88-1.66h0a1.78,1.78,0,0,0-.4-1.21,2.44,2.44,0,0,0-1-.66,13.67,13.67,0,0,0-1.62-.4H234l-.15,0a16.28,16.28,0,0,1-2.39-.57,3.44,3.44,0,0,1-1.57-1.15,3.86,3.86,0,0,1-.65-2.39h0a4.19,4.19,0,0,1,.61-2.31,3.74,3.74,0,0,1,1.77-1.46,7.12,7.12,0,0,1,2.8-.5,7.27,7.27,0,0,1,1.54.17,7.1,7.1,0,0,1,1.49.51,5,5,0,0,1,.52.26,1,1,0,0,1-.49,1.85,1,1,0,0,1-.48-.12,5.5,5.5,0,0,0-.92-.44,4.87,4.87,0,0,0-1.66-.31,4,4,0,0,0-2.33.6,2,2,0,0,0-.82,1.69h0a1.65,1.65,0,0,0,.42,1.19,2.6,2.6,0,0,0,1.07.63,15.4,15.4,0,0,0,1.77.43h.07l.08,0,.11,0,.11,0a11.87,11.87,0,0,1,2.21.64,3.52,3.52,0,0,1,1.49,1.2A3.86,3.86,0,0,1,239.18,304.09Z"/><path id="T" class="cls-1" d="M250.38,294.57h0a1,1,0,0,1-1,1h-1.56a1.58,1.58,0,0,0-1.58,1.58v10a1,1,0,1,1-2,0v-10a1.59,1.59,0,0,0-1.59-1.58h-1.56a1,1,0,0,1-1-1h0a1,1,0,0,1,1-1h8.34A1,1,0,0,1,250.38,294.57Z"/></g></g></g></svg>