<svg xmlns="http://www.w3.org/2000/svg" viewBox="0 0 255.69 239.82"><defs><style>.cls-1{fill:#fff100;}.cls-2{fill:#fff;}.cls-3{fill:none;stroke:#231f20;stroke-linecap:round;stroke-miterlimit:10;stroke-width:3.4px;}.cls-4{fill:#231f20;}.cls-5{fill:#ec1c24;}</style></defs><g id="Layer_2" data-name="Layer 2"><g id="Catchphrase"><path id="Left_Loop" data-name="Left Loop" class="cls-1" d="M51.08,0a76.35,76.35,0,0,0-6.25,25.46,66.67,66.67,0,0,0,3.05,27A66.52,66.52,0,0,0,66.17,80,76.62,76.62,0,0,0,82.48,91.61c1.92,1.07,3.4,2.43,6.63,3.84C76.05,63.64,64.14,31.82,51.08,0Zm15,71.3A50.54,50.54,0,0,1,58.13,60a58,58,0,0,1-5.94-16.46,65.11,65.11,0,0,1-.46-18.14c.18-2.2.42-4,.61-5.34C60.37,40,68.2,59.85,76.23,79.72A48.84,48.84,0,0,1,66.06,71.3Z"/><path id="Central_loop" data-name="Central loop" class="cls-1" d="M142.84,102.13a93.41,93.41,0,0,1-30.79-.15,105.55,105.55,0,0,1-22.94-6.53c12.65,30.83,25.53,61.67,38.18,92.5,12.43-30.88,25.76-61.62,38.18-92.5A92.53,92.53,0,0,1,142.84,102.13Zm-15.55,70c-8.84-22.08-16.82-44.17-25.66-66.25,1.85.49,4.42,1.14,7.52,1.83s4.6,1,6.81,1.32a72.27,72.27,0,0,0,8.54.61c3.5.09,6.15,0,7.92-.1,2.19-.1,5.26-.24,9-.72,3.19-.41,6.5-1.47,11.58-2.94C144.35,127.82,135.9,150.11,127.29,172.09Z"/><path id="Right_loop" data-name="Right loop" class="cls-1" d="M203.51,0c-12.68,31.52-25.36,63.94-38,95.45,1.48-.66,2.69-1.4,3.59-1.86a76.65,76.65,0,0,0,25.15-19.36A68.26,68.26,0,0,0,204.88,57a64.31,64.31,0,0,0,4.72-21.65A81.22,81.22,0,0,0,203.51,0Zm-.92,43.59a57.94,57.94,0,0,1-5.94,16.47,50.54,50.54,0,0,1-7.93,11.28,48.72,48.72,0,0,1-10.36,8.38c8-19.87,15.86-39.77,23.88-59.64.2,1.32.63,3.19.81,5.38A65,65,0,0,1,202.59,43.59Z"/><g id="Logo_Text" data-name="Logo Text"><path class="cls-2" d="M9.06,203h0a2,2,0,0,1,1.85,1.26L18,222.73a2.13,2.13,0,0,1-2,2.89h0a2.13,2.13,0,0,1-2-1.43L9.06,210.13,4.14,224.19a2.13,2.13,0,0,1-2,1.43h0a2.13,2.13,0,0,1-2-2.89l7.08-18.52A2,2,0,0,1,9.06,203Z"/><path class="cls-2" d="M52,205V222.4a3.21,3.21,0,0,1-3.21,3.21h0a3.23,3.23,0,0,1-2.89-1.8L39.81,211.4a.56.56,0,0,0-1.06.25v11.81a2.13,2.13,0,0,1-1.51,2.08,2.06,2.06,0,0,1-2-.53,2,2,0,0,1-.6-1.44V206.31a3.31,3.31,0,0,1,2.61-3.3,3.21,3.21,0,0,1,3.49,1.75l6.15,12.66a.54.54,0,0,0,1-.23V205.11A2.13,2.13,0,0,1,49.47,203a2.06,2.06,0,0,1,2,.53A2,2,0,0,1,52,205Z"/><path class="cls-2" d="M84.55,205h0a2.05,2.05,0,0,1-2,2.06H78.38v16.5a2.06,2.06,0,0,1-2.06,2.06h-.16a2.06,2.06,0,0,1-2-2.06v-16.5H70A2.06,2.06,0,0,1,67.93,205h0A2.06,2.06,0,0,1,70,202.94H82.5A2.06,2.06,0,0,1,84.55,205Z"/><path class="cls-2" d="M101.72,225.62h0a2.21,2.21,0,0,1-2.21-2.22V205.16a2.21,2.21,0,0,1,2.21-2.21h0a2.21,2.21,0,0,1,2.22,2.21V223.4A2.21,2.21,0,0,1,101.72,225.62Z"/><path class="cls-2" d="M124.69,224.86a6.6,6.6,0,0,1-2.8-2.88,9.93,9.93,0,0,1-1-4.58v-6.22a9.9,9.9,0,0,1,1-4.58,6.63,6.63,0,0,1,2.8-2.89,9.15,9.15,0,0,1,4.43-1,7.85,7.85,0,0,1,3.82.92,7.52,7.52,0,0,1,2.79,2.68,9.07,9.07,0,0,1,.67,1.28,2.15,2.15,0,0,1-2,2.95h0a2.15,2.15,0,0,1-2-1.26,5.14,5.14,0,0,0-.36-.66,3.69,3.69,0,0,0-1.27-1.22,3.28,3.28,0,0,0-1.66-.42,4.05,4.05,0,0,0-2,.49,3.24,3.24,0,0,0-1.29,1.44,5.37,5.37,0,0,0-.44,2.27v6.22a5.33,5.33,0,0,0,.44,2.26,3.26,3.26,0,0,0,1.29,1.43,4.05,4.05,0,0,0,2,.49,3.39,3.39,0,0,0,1.69-.42,3.43,3.43,0,0,0,1.26-1.2,5.71,5.71,0,0,0,.35-.65,2.14,2.14,0,0,1,2-1.29h0a2.14,2.14,0,0,1,2,3,10.32,10.32,0,0,1-.67,1.28,7.52,7.52,0,0,1-2.77,2.67,7.85,7.85,0,0,1-3.82.92A9.26,9.26,0,0,1,124.69,224.86Z"/><path class="cls-2" d="M168.8,223.56h0a2.06,2.06,0,0,1-2.06,2.06H156.15a2.54,2.54,0,0,1-2.54-2.55v-18a2.13,2.13,0,0,1,2.13-2.14h0a2.14,2.14,0,0,1,2.14,2.14v15.13a1.29,1.29,0,0,0,1.29,1.29h7.57A2.06,2.06,0,0,1,168.8,223.56Z"/><path class="cls-2" d="M211.34,224.86a6.63,6.63,0,0,1-2.81-2.88,10.06,10.06,0,0,1-1-4.58v-6.22a10,10,0,0,1,1-4.58,6.65,6.65,0,0,1,2.81-2.89,9.12,9.12,0,0,1,4.43-1,7.88,7.88,0,0,1,3.82.92,7.5,7.5,0,0,1,2.78,2.68,8.14,8.14,0,0,1,.67,1.28,2.14,2.14,0,0,1-2,2.95h0a2.16,2.16,0,0,1-1.95-1.26,5.14,5.14,0,0,0-.36-.66,3.75,3.75,0,0,0-1.26-1.22,3.33,3.33,0,0,0-1.66-.42,4.05,4.05,0,0,0-2,.49,3.18,3.18,0,0,0-1.29,1.44,5.22,5.22,0,0,0-.45,2.27v6.22a5.17,5.17,0,0,0,.45,2.26,3.21,3.21,0,0,0,1.29,1.43,4.05,4.05,0,0,0,2,.49,3.38,3.38,0,0,0,1.68-.42,3.43,3.43,0,0,0,1.26-1.2,4.48,4.48,0,0,0,.35-.65,2.17,2.17,0,0,1,2-1.29h0a2.15,2.15,0,0,1,2,3,10.32,10.32,0,0,1-.67,1.28,7.55,7.55,0,0,1-2.78,2.67,7.84,7.84,0,0,1-3.81.92A9.23,9.23,0,0,1,211.34,224.86Z"/><path class="cls-2" d="M254.92,225.62H252.2a1.76,1.76,0,0,1-1.53-.89l-4.74-8.26a.21.21,0,0,0-.35,0l-3,4.2a.16.16,0,0,0,0,.12v3.42a1.43,1.43,0,0,1-1.42,1.43h-1.43a1.42,1.42,0,0,1-1.42-1.43V204.37a1.42,1.42,0,0,1,1.42-1.43h1.43a1.43,1.43,0,0,1,1.42,1.43v9.11a.21.21,0,0,0,.38.12l6.43-9.78a1.94,1.94,0,0,1,1.62-.88h2.6a.89.89,0,0,1,.72,1.41l-5.64,7.84a.24.24,0,0,0,0,.23l7,12A.77.77,0,0,1,254.92,225.62Z"/></g><g id="Symbol"><path class="cls-3" d="M177.91,214.26a9.84,9.84,0,1,1,4.18,8.05"/><path class="cls-4" d="M186.23,211.76A.9.9,0,0,1,186,213l-6.84,4.33-.09.06-2.25,1.4,0,0-5.8-9.16a.91.91,0,0,1,.28-1.25l.83-.52a.91.91,0,0,1,1.25.28l4.31,6.81,6.85-4.34a.9.9,0,0,1,1.25.29Z"/></g><g id="MAKE_TI" data-name="MAKE TI"><path class="cls-5" d="M32.13,233.69h.63v6.1h-.6v-5.24l.06.27-1.84,4.12H30l-1.84-4,.06-.35v5.24h-.6v-6.1h.63l2,4.41Z"/><path class="cls-5" d="M44.44,233.69h.73l2.24,6.1h-.67l-1.94-5.46-1.94,5.46h-.67Zm-1.21,4.06h3.2v.56h-3.2Z"/><path class="cls-5" d="M56.93,233.69h.6v6.1h-.6Zm.29,4.24,3.34-4.24h.78l-3.87,4.71Zm1.72-1.39.35-.63,2.31,3.88h-.72Z"/><path class="cls-5" d="M71.11,233.69h.6v6.1h-.6Zm.41,0H75v.56H71.52Zm0,2.79h3V237h-3Zm0,2.75H75v.56H71.52Z"/><path class="cls-5" d="M105.78,233.69h4.3v.56h-4.3Zm1.85.25h.61v5.85h-.61Z"/><path class="cls-5" d="M120.24,239.79h-.6v-6.1h.6Z"/></g><g id="ME_WAIT" data-name="ME WAIT"><path class="cls-4" d="M134.17,233.29h.68v6.53h-.64v-5.61l.06.29-2,4.41h-.46l-2-4.32.07-.38v5.61h-.65v-6.53H130l2.1,4.72Z"/><path class="cls-4" d="M145.67,233.29h.65v6.53h-.65Zm.44,0h3.75v.6h-3.75Zm0,3h3.26v.6h-3.26Zm0,2.94h3.75v.6h-3.75Z"/><path class="cls-4" d="M174.9,233.29h.45l1.43,5.62,1.38-5.62h.72l-1.77,6.53h-.67l-1.29-5.15-1.35,5.15h-.66l-1.78-6.53h.73l1.38,5.62Z"/><path class="cls-4" d="M190.4,233.29h.78l2.41,6.53h-.72L190.79,234l-2.08,5.85H188Zm-1.3,4.34h3.44v.61H189.1Z"/><path class="cls-4" d="M204.56,239.82h-.65v-6.53h.65Z"/><path class="cls-4" d="M215,233.29h4.61v.6H215Zm2,.27h.65v6.26H217Z"/></g></g></g></svg>